<svg xmlns="http://www.w3.org/2000/svg" width="122" height="37.214" viewBox="0 0 122 37.214">
  <g id="Group_115" data-name="Group 115" transform="translate(-320.513 -2735.409)">
    <g id="Group_110" data-name="Group 110" transform="translate(320.513 2735.409)">
      <path id="Path_518" data-name="Path 518" d="M371.766,2749a11.655,11.655,0,1,0,11.655,11.655A11.668,11.668,0,0,0,371.766,2749Zm0,18.8a7.145,7.145,0,1,1,1.1-14.2,3.74,3.74,0,1,0,5.3,3.894,7.129,7.129,0,0,1-6.4,10.3Z" transform="translate(-336.025 -2740.735)" fill="#ff6701"/>
      <path id="Path_519" data-name="Path 519" d="M332.168,2783.036a7.153,7.153,0,0,1-7.145-7.144h-4.511a11.655,11.655,0,0,0,23.31,0h-4.51A7.153,7.153,0,0,1,332.168,2783.036Z" transform="translate(-320.513 -2751.268)" fill="#ff6701"/>
      <path id="Path_520" data-name="Path 520" d="M339.287,2737.857a11.648,11.648,0,1,0,4.507,9.766h.029v-12.215h-4.536Zm-7.119,16.351a7.145,7.145,0,1,1,.9-14.226,3.741,3.741,0,1,0,5.454,3.836,7.079,7.079,0,0,1,.762,2.75v.99A7.148,7.148,0,0,1,332.168,2754.209Z" transform="translate(-320.513 -2735.409)" fill="#ff6701"/>
    </g>
    <g id="Group_114" data-name="Group 114" transform="translate(372.089 2741.233)">
      <g id="Group_112" data-name="Group 112" transform="translate(0 0)">
        <g id="Group_111" data-name="Group 111">
          <path id="Path_521" data-name="Path 521" d="M405.307,2769.357l.4-4.131a13.29,13.29,0,0,0,2.808.3c2.049,0,2.808-1.421,2.808-3.3v-15.5h4.593v15.5c0,4.131-1.982,7.667-7.4,7.667A12.553,12.553,0,0,1,405.307,2769.357Z" transform="translate(-405.307 -2745.665)" fill="#121212"/>
          <path id="Path_522" data-name="Path 522" d="M438.746,2758.527h4.328v15.43h-4.328v-2.214a6.11,6.11,0,0,1-5.089,2.611c-4.263,0-7.434-3.3-7.434-8.1s3.106-8.127,7.533-8.127a5.921,5.921,0,0,1,4.99,2.444Zm-.133,7.731a4.061,4.061,0,0,0-4.031-4.1,4.083,4.083,0,0,0,.033,8.161A4.069,4.069,0,0,0,438.613,2766.258Z" transform="translate(-413.501 -2750.134)" fill="#121212"/>
          <path id="Path_523" data-name="Path 523" d="M469.929,2744.983h4.328v23.823h-4.328v-1.916a6.171,6.171,0,0,1-4.956,2.314c-3.965,0-7.567-3.172-7.567-8.128s3.6-8.1,7.567-8.1a6.057,6.057,0,0,1,4.956,2.28Zm-.132,16.093a4.068,4.068,0,0,0-4-4.064,4.026,4.026,0,0,0-4,4.064,4,4,0,1,0,8,0Z" transform="translate(-425.716 -2744.983)" fill="#121212"/>
          <path id="Path_524" data-name="Path 524" d="M498.781,2758.782h4.659l-9.516,23H489.3l3.668-9.02-6.112-13.977h4.758l3.634,8.922Z" transform="translate(-437.252 -2750.389)" fill="#121212"/>
        </g>
      </g>
      <g id="Group_113" data-name="Group 113" transform="translate(65.29 2.733)">
        <path id="Path_525" data-name="Path 525" d="M514.607,2749.477v.465h-.718v2.138h-.525v-2.138h-.718v-.465Z" transform="translate(-512.646 -2749.477)" fill="#121212"/>
        <path id="Path_526" data-name="Path 526" d="M519.064,2752.08h-.537l-.188-1.612-.635,1.318h-.412l-.642-1.318-.188,1.612h-.537l.32-2.6h.446l.8,1.708.8-1.708h.453Z" transform="translate(-513.93 -2749.477)" fill="#121212"/>
      </g>
    </g>
  </g>
</svg>
