<svg id="Objects" xmlns="http://www.w3.org/2000/svg" width="73.924" height="71.435" viewBox="0 0 73.924 71.435">
  <rect id="Rectangle_5630" data-name="Rectangle 5630" width="61.808" height="61.808" rx="3" transform="matrix(0.997, -0.073, 0.073, 0.997, 7.177, 9.793)" fill="#cfd0d2"/>
  <rect id="Rectangle_5631" data-name="Rectangle 5631" width="61.808" height="61.808" rx="6" transform="matrix(0.997, -0.073, 0.073, 0.997, 6.121, 8.738)" fill="#0232eb"/>
  <rect id="Rectangle_5633" data-name="Rectangle 5633" width="0.053" height="61.96" transform="translate(10.491 8.573) rotate(-4.004)" fill="#bed6de"/>
  <rect id="Rectangle_5634" data-name="Rectangle 5634" width="0.053" height="61.808" transform="matrix(0.997, -0.073, 0.073, 0.997, 14.902, 8.097)" fill="#bed6de"/>
  <rect id="Rectangle_5635" data-name="Rectangle 5635" width="0.053" height="61.96" transform="translate(19.323 7.953) rotate(-4.004)" fill="#bed6de"/>
  <rect id="Rectangle_5636" data-name="Rectangle 5636" width="0.053" height="61.808" transform="matrix(0.997, -0.073, 0.073, 0.997, 23.702, 7.451)" fill="#bed6de"/>
  <rect id="Rectangle_5637" data-name="Rectangle 5637" width="0.053" height="61.808" transform="matrix(0.997, -0.073, 0.073, 0.997, 28.111, 7.127)" fill="#bed6de"/>
  <rect id="Rectangle_5638" data-name="Rectangle 5638" width="0.053" height="61.808" transform="matrix(0.997, -0.073, 0.073, 0.997, 32.509, 6.805)" fill="#bed6de"/>
  <rect id="Rectangle_5639" data-name="Rectangle 5639" width="0.053" height="61.96" transform="translate(36.977 6.721) rotate(-4.004)" fill="#bed6de"/>
  <rect id="Rectangle_5640" data-name="Rectangle 5640" width="0.053" height="61.808" transform="matrix(0.997, -0.073, 0.073, 0.997, 41.32, 6.158)" fill="#bed6de"/>
  <rect id="Rectangle_5641" data-name="Rectangle 5641" width="0.053" height="61.808" transform="matrix(0.997, -0.073, 0.073, 0.997, 45.716, 5.836)" fill="#bed6de"/>
  <rect id="Rectangle_5642" data-name="Rectangle 5642" width="0.053" height="61.808" transform="matrix(0.997, -0.073, 0.073, 0.997, 50.126, 5.513)" fill="#bed6de"/>
  <rect id="Rectangle_5643" data-name="Rectangle 5643" width="0.053" height="61.808" transform="matrix(0.997, -0.073, 0.073, 0.997, 54.529, 5.191)" fill="#bed6de"/>
  <rect id="Rectangle_5644" data-name="Rectangle 5644" width="0.053" height="61.96" transform="translate(59.065 5.16) rotate(-4.004)" fill="#bed6de"/>
  <path id="Path_25007" data-name="Path 25007" d="M0,0H.053L.169,61.5H.117Z" transform="matrix(0.997, -0.073, 0.073, 0.997, 63.242, 4.861)" fill="#bed6de"/>
  <path id="Path_24993" data-name="Path 24993" d="M271.739,230.18l-.107.008-4.3.315-.16-2.176-.1.008.16,2.176-4.3.315-.16-2.176-.106.008.16,2.176-4.3.315-.158-2.17-.106.007.16,2.176-4.3.315-.16-2.175-.1.007.16,2.176-4.3.315-.16-2.175-.1.008.16,2.175-4.3.315-.16-2.175-.1.008.16,2.175-4.3.315-.161-2.175-.1.008.16,2.175-4.3.315-.16-2.175-.106.008.16,2.175-4.3.314-.16-2.176-.106.008.16,2.168-4.3.316-.16-2.176-.1.008.16,2.176-4.3.315-.16-2.176-.1.008.16,2.176-4.3.315-.161-2.176-.1.008.16,2.184-4.3.315-.106.008.008.1.315,4.3-2.175.16.008.1,2.175-.16.312,4.293-2.175.161.008.1,2.175-.16.315,4.3-2.175.16.008.106,2.175-.16.316,4.3-2.176.16.008.106,2.175-.16.316,4.3-2.176.16.008.106,2.177-.161.315,4.3-2.176.16.008.1,2.176-.16.315,4.3-2.176.16.008.1,2.176-.16.317,4.3-2.176.16.008.106,2.176-.16.315,4.3-2.175.16.007.106,2.176-.167.315,4.3-2.175.16.007.106,2.176-.157.315,4.3-2.175.16.008.1,2.175-.157.315,4.3-2.175.16.008.1,2.175-.16.315,4.3.008.1.106-.008,4.3-.315.158,2.172.106-.008-.16-2.175,4.3-.315.163,2.175.1-.008-.16-2.175,4.3-.315.163,2.175.1-.008-.16-2.175,4.3-.315.16,2.175.1-.008-.16-2.175,4.3-.315.16,2.175.106-.008-.16-2.175,4.3-.316.16,2.176.106-.008-.164-2.178,4.3-.316.16,2.177.106-.008-.16-2.176,4.3-.315.16,2.176.1-.008-.16-2.176,4.3-.315.16,2.176.1-.008-.16-2.176,4.3-.315.16,2.176.106-.008-.16-2.176,4.3-.315.16,2.175.106-.007-.16-2.176,4.294-.313.16,2.175.106-.008-.161-2.175,4.3-.315.1-.008-.007-.106-.315-4.293,2.176-.164-.008-.106-2.176.161-.315-4.3,2.176-.16-.008-.1-2.176.16-.315-4.3,2.176-.16-.008-.1-2.176.16-.315-4.3,2.176-.16-.008-.106-2.176.164-.315-4.3,2.175-.16-.007-.106-2.176.157-.315-4.3,2.175-.16-.008-.106L274,261l-.313-4.295,2.175-.16-.008-.1-2.175.16-.315-4.3,2.175-.16-.008-.1-2.177.16-.315-4.3,2.175-.16-.008-.1-2.175.16-.315-4.3,2.175-.16-.008-.106-2.175.16-.316-4.3,2.177-.16-.008-.106-2.175.16-.316-4.3,2.176-.16-.008-.1-2.176.16-.315-4.3Zm-4.5.435.315,4.3-4.3.315-.315-4.3Zm-24.381,28.244-.315-4.3,4.3-.315.313,4.3Zm4.308-.21.316,4.3-4.3.315-.315-4.3Zm-4.406.217-4.3.315-.315-4.3,4.3-.315Zm.007.106.316,4.3-4.3.315-.315-4.3Zm.324,4.406.315,4.3-4.3.315-.316-4.3Zm.1-.008,4.291-.317.315,4.3-4.3.315Zm4.406-.323,4.3-.316.315,4.3-4.3.315Zm-.008-.106-.326-4.295,4.3-.316.315,4.3Zm-.323-4.406-.326-4.295,4.3-.315.317,4.3Zm-.323-4.406-.326-4.295,4.3-.315.315,4.3Zm-.106.008-4.3.316-.315-4.3,4.3-.315Zm-4.406.323-4.3.316-.315-4.3,4.3-.315Zm-4.406.324-4.3.315-.315-4.3,4.3-.315Zm.008.1.315,4.3-4.3.315-.315-4.294Zm.323,4.406.315,4.3-4.3.315-.316-4.3Zm.323,4.406L239,268l-4.3.315-.316-4.3Zm.323,4.406.315,4.3-4.3.315-.315-4.3Zm.1-.008,4.3-.315.315,4.3-4.3.315Zm4.406-.323,4.292-.317.315,4.3-4.3.311Zm4.406-.323,4.3-.315.316,4.3-4.307.309Zm4.406-.323,4.3-.315.315,4.3-4.306.31Zm-.008-.1-.315-4.3,4.3-.315.315,4.3ZM252,262.62l-.315-4.3,4.282-.319.315,4.3Zm-.323-4.406-.315-4.3,4.3-.315.307,4.3Zm-.323-4.406-.316-4.3,4.3-.315.315,4.3Zm-.323-4.406-.316-4.3,4.3-.315.315,4.3Zm-.106.008-4.3.316-.328-4.3,4.3-.315Zm-4.406.323-4.3.316-.315-4.3,4.3-.315Zm-4.406.324-4.3.315-.315-4.3,4.3-.315Zm-4.406.323-4.3.315-.318-4.287,4.3-.316Zm-4.406.323-4.3.315-.316-4.3,4.3-.316Zm.008.1.315,4.3-4.3.315-.316-4.3Zm.323,4.406.315,4.3-4.3.316-.315-4.3Zm.323,4.406.315,4.3-4.3.311-.315-4.3Zm.323,4.406.315,4.3-4.3.311-.315-4.3Zm.323,4.406.315,4.3-4.3.31-.315-4.3Zm.323,4.406.315,4.3-4.3.31-.315-4.3Zm.106-.008,4.3-.315.315,4.3-4.3.315Zm4.406-.323,4.292-.325.315,4.3-4.3.316Zm4.406-.323,4.3-.315.315,4.3-4.3.316Zm4.406-.323,4.292-.325.316,4.3-4.3.315Zm4.406-.323,4.3-.315.316,4.3-4.3.315Zm4.406-.323,4.282-.328.315,4.3-4.3.315Zm-.008-.1-.315-4.3,4.3-.315.3,4.293Zm-.323-4.406-.315-4.3,4.3-.315.3,4.293Zm-.323-4.406-.315-4.3,4.282-.319.315,4.3Zm-.323-4.406-.316-4.3,4.3-.315.315,4.3Zm-.323-4.406-.316-4.3,4.3-.315.315,4.3Zm-.324-4.406-.315-4.3,4.3-.315.316,4.3Zm-.323-4.406-.315-4.3,4.3-.315.3,4.306Zm-.1.008-4.3.315-.315-4.3,4.3-.315ZM250.6,245l-4.31.327-.312-4.3,4.3-.315Zm-4.406.323-4.3.315-.325-4.29,4.3-.315Zm-4.406.323-4.3.315-.325-4.289,4.3-.316Zm-4.406.323-4.3.315L232.766,242l4.3-.318Zm-4.406.323-4.3.315-.315-4.3,4.3-.306Zm-4.406.323-4.3.315-.316-4.3,4.3-.315Zm.008.106.315,4.3-4.3.315-.316-4.3Zm.323,4.406.315,4.3-4.29.32-.315-4.3Zm.323,4.406.315,4.3-4.3.316-.315-4.3Zm.323,4.406.315,4.3-4.3.316-.315-4.3Zm.323,4.406.315,4.3-4.3.315-.315-4.3Zm.323,4.406.316,4.3-4.3.315-.315-4.3Zm.323,4.406.316,4.3-4.3.315-.315-4.3Zm.324,4.406.315,4.3-4.3.315-.315-4.3Zm.1-.008,4.3-.315.315,4.3-4.3.315Zm4.406-.323,4.3-.315.315,4.3-4.3.316Zm4.406-.323,4.3-.315.315,4.3-4.3.316Zm4.406-.323,4.3-.315.315,4.3-4.3.3Zm4.406-.323,4.3-.315.316,4.3-4.3.315Zm4.406-.323,4.3-.315.316,4.3-4.3.315Zm4.406-.323,4.282-.329.315,4.3-4.3.315Zm4.406-.323,4.3-.316.315,4.3-4.3.315Zm-.008-.106-.332-4.306,4.3-.315.315,4.3Zm-.323-4.406-.335-4.306,4.3-.315.315,4.3Zm-.323-4.406-.335-4.306,4.3-.315.315,4.3Zm-.324-4.406-.334-4.306,4.3-.315.315,4.3Zm-.341-4.4-.315-4.3,4.3-.316.315,4.3Zm-.323-4.406-.315-4.3,4.3-.315.316,4.3Zm-.323-4.406-.315-4.3,4.3-.315.316,4.3Zm-.323-4.406-.315-4.3,4.3-.3.317,4.293Zm-.323-4.406-.315-4.3,4.3-.3.315,4.3Zm-.1.008-4.3.315-.315-4.3,4.3-.315Zm-4.406.323-4.3.315-.315-4.3,4.3-.316Zm-4.406.323-4.293.325-.316-4.3,4.3-.316Zm-4.406.323-4.3.315-.315-4.3,4.3-.315Zm-4.406.323-4.282.325-.315-4.3,4.3-.315Zm-4.406.323-4.282.325-.317-4.3,4.3-.315Zm-4.406.323-4.282.325-.315-4.3,4.3-.315Zm-4.406.323-4.282.325-.315-4.3,4.3-.315Zm-4.406.323-4.3.315-.315-4.3,4.3-.315Zm.008.106.315,4.3-4.3.315-.315-4.3Zm.323,4.406.315,4.3-4.3.315-.315-4.3Zm.323,4.406.315,4.3-4.272.318-.315-4.3Zm.323,4.406.315,4.3-4.3.315-.315-4.3Zm.323,4.406.315,4.3-4.3.316-.315-4.3Zm.323,4.406.316,4.3-4.3.315-.315-4.3Zm.323,4.406.316,4.3-4.3.315-.288-4.306Zm.323,4.406.316,4.3-4.3.315-.315-4.3Zm.324,4.406.315,4.3-4.3.315-.316-4.3Zm.323,4.406.341,4.279-4.3.316-.316-4.3Zm.1-.008,4.3-.315.344,4.283-4.3.316Zm4.406-.323,4.3-.315.316,4.3-4.28.3Zm4.406-.323,4.3-.315.315,4.3-4.279.3Zm4.406-.323,4.3-.315.315,4.3-4.279.3ZM244.47,281l4.3-.315.315,4.3-4.287.3Zm4.406-.323,4.3-.315.315,4.3-4.3.315Zm4.406-.323,4.3-.315.316,4.3-4.3.315Zm4.406-.323,4.3-.331.315,4.3-4.3.315Zm4.406-.323,4.3-.316.315,4.3-4.3.315Zm4.406-.324,4.3-.315.315,4.3-4.3.315Zm-.008-.1-.315-4.3,4.3-.316.315,4.3Zm-.323-4.406-.316-4.3,4.3-.315.315,4.3Zm-.323-4.406-.316-4.3,4.3-.315.315,4.3Zm-.324-4.406-.315-4.3,4.3-.315.316,4.3Zm-.323-4.406-.323-4.3,4.3-.315.316,4.3Zm-.323-4.406-.315-4.3,4.3-.316.315,4.3Zm-.323-4.406-.315-4.3,4.3-.316.315,4.3Zm-.323-4.406-.315-4.3,4.291-.312.315,4.3Zm-.323-4.406-.315-4.3,4.3-.315.316,4.3Zm-.323-4.406-.315-4.3,4.3-.315.315,4.3Zm-.748-8.685.315,4.3-4.3.315-.315-4.3Zm-4.406.323.315,4.3-4.3.315-.315-4.3Zm-4.406.323.316,4.3-4.3.315-.315-4.3Zm-4.406.324.315,4.3-4.288.313-.316-4.3Zm-4.406.323.315,4.3-4.3.315-.316-4.3Zm-4.406.323.315,4.3-4.3.315-.315-4.3Zm-4.406.323.315,4.3-4.3.315-.3-4.3Zm-4.406.323.338,4.3-4.3.316-.315-4.3Zm-4.406.323.315,4.3-4.3.316-.315-4.3Zm-4.406.323.315,4.3-4.3.315-.316-4.3Zm-8.7.638,4.326-.316.315,4.3-4.3.315Zm.323,4.406,4.326-.316.315,4.3-4.3.316Zm.323,4.406,4.326-.316.315,4.3-4.3.315Zm.323,4.406,4.3-.315.315,4.3-4.269.3Zm.323,4.406,4.3-.316.316,4.3-4.271.3Zm.323,4.406,4.328-.33.316,4.3-4.3.317Zm.323,4.406,4.3-.315.315,4.3-4.27.3Zm.323,4.406,4.3-.315.315,4.3-4.3.315Zm.323,4.406,4.3-.315.315,4.3-4.3.315Zm.323,4.406,4.3-.315.315,4.3-4.3.315Zm.323,4.406,4.3-.316.315,4.3-4.3.315Zm.324,4.406,4.3-.315.343,4.264-4.3.316Zm.638,8.7-.315-4.3,4.3-.315.315,4.3Zm4.406-.323-.315-4.3,4.3-.315.315,4.3Zm4.406-.324-.315-4.3,4.317-.352.315,4.3Zm4.406-.323-.3-4.327,4.3-.319.316,4.3Zm4.406-.323-.315-4.3,4.317-.349.316,4.3Zm4.406-.323-.306-4.331,4.3-.315.319,4.295Zm4.406-.323-.306-4.331,4.3-.316.315,4.3Zm4.406-.323-.306-4.331,4.3-.316.315,4.3Zm4.406-.323-.315-4.3,4.3-.315.315,4.3Zm4.406-.323-.315-4.3,4.3-.315.316,4.3Zm4.406-.323-.315-4.3,4.3-.315.315,4.3Zm4.406-.323-.315-4.3,4.3-.315.313,4.264Zm8.7-.639-4.307.283-.316-4.3,4.3-.315Zm-.323-4.406-4.3.316-.316-4.3,4.3-.315Zm-.323-4.406-4.3.315-.315-4.3,4.3-.315Zm-.332-4.432-4.3.315-.315-4.3,4.3-.315Zm-.323-4.406-4.3.315-.315-4.3,4.3-.315Zm-.323-4.406-4.3.315-.315-4.3,4.3-.315ZM273.894,261l-4.3.316-.313-4.288,4.3-.315Zm-.324-4.406-4.3.315-.315-4.3,4.3-.315Zm-.323-4.406-4.3.315-.315-4.3,4.3-.316Zm-.323-4.406-4.3.315-.315-4.3,4.3-.295Zm-.323-4.406-4.3.339-.316-4.3,4.3-.315Zm-.323-4.406-4.3.315-.313-4.271,4.3-.315Zm-.323-4.406-4.3.315-.316-4.3,4.3-.315Z" transform="translate(-205.974 -223.658)" fill="#779db0"/>
  <path id="Path_24995" data-name="Path 24995" d="M698.031,198.087c.4-.669,0-1.932.4-2.605a4.252,4.252,0,0,1,.526-.8L679.927,183.66a6.949,6.949,0,0,1-.948,1.749c-.721,1.267-1.445,2.533-2.219,3.77l18.964,10.981C696.1,199.22,697.507,198.968,698.031,198.087Z" transform="translate(-625.029 -183.66)" fill="#f6e0ce" opacity="0.95"/>
  <path id="Path_24996" data-name="Path 24996" d="M167.327,209.272c-.507-.592-1.125-1.082-1.64-1.665a3.73,3.73,0,0,1-.587-.758l-16.67,14.085c.561.281.062,1.379.37,1.72.979,1.083,2.948,1.894,3.871,3.023l16.606-14.029A16.743,16.743,0,0,1,167.327,209.272Z" transform="translate(-148.43 -204.579)" fill="#f6e0ce" opacity="0.95"/>
  <path id="Path_24997" data-name="Path 24997" d="M489.909,647.079a3.788,3.788,0,0,0-2.713-.879,2.427,2.427,0,0,0-.453-.008,2.6,2.6,0,0,0-2.059,1.385q-4.093-1.249-8.2-2.423a64.334,64.334,0,0,0-6.489-1.516,3.8,3.8,0,0,0-.069-.438,3.632,3.632,0,0,0-.113-.4c1.5-1.175,2.989-2.378,4.459-3.593,1.185-.98,2.342-1.995,3.488-3.021.845-.757,1.655-1.545,2.476-2.326a2.764,2.764,0,0,0,.462.327,2.514,2.514,0,0,0,.54.228,3.1,3.1,0,0,0,.894.391,3.206,3.206,0,0,0,3.144-1.054,2.854,2.854,0,0,0,.513-.448,2.656,2.656,0,0,0,.073-3.335,4.089,4.089,0,0,0-.267-.557,3.024,3.024,0,0,0-3.543-1.658,4,4,0,0,1-1.419.755,3.11,3.11,0,0,0-1.69,3.338,2.416,2.416,0,0,0,.357.873c-.889.734-1.8,1.441-2.694,2.168-1.171.955-2.352,1.894-3.526,2.843-1.434,1.164-2.9,2.3-4.372,3.42a2.919,2.919,0,0,0-1.085-.6,3.318,3.318,0,0,0-1.917.045,3.654,3.654,0,0,0-2.476,1.314,3.026,3.026,0,0,0-.357,3.34,6.508,6.508,0,0,0,1.973,2.161,3.183,3.183,0,0,0,3.1-.295,3.126,3.126,0,0,0,1.669-1.488,62.261,62.261,0,0,1,6.46,1.742c2.63.824,5.248,1.683,7.874,2.515a2.447,2.447,0,0,0,.159.837,3.414,3.414,0,0,0,1.837,1.824,3.1,3.1,0,0,0,3.306-.088,3.786,3.786,0,0,0,1.436-2.389A3.206,3.206,0,0,0,489.909,647.079Z" transform="translate(-437.036 -600.308)" fill="#fff"/>
  <path id="Path_25004" data-name="Path 25004" d="M335.572,301.293c-.4.7-1.13.187-1.748.211a5.406,5.406,0,0,0-1.879.685c-1.435.609-2.813-.618-4.185-.9-3.394-.7-6.11,2.134-9.29,2.689a11.489,11.489,0,0,1-5.031-.5,7.234,7.234,0,0,0-4.278-.032c-2.586.867-4.7,3.016-7.555,3.01-1.7,0-3.378-.536-5.085-.374a4.908,4.908,0,0,0-2.28.759,12.053,12.053,0,0,0-1.86,1.665c-.2.206.1.49.311.311,1.26-1.039,2.437-1.973,4.146-2,1.574-.025,3.113.423,4.684.452a8.327,8.327,0,0,0,3.9-1.009,36.884,36.884,0,0,1,3.7-1.882,5.76,5.76,0,0,1,1.942-.392,9.027,9.027,0,0,1,2.468.455,11.655,11.655,0,0,0,4.835.523,15.548,15.548,0,0,0,4.663-1.688c1.485-.717,3.183-1.4,4.842-.888.783.243,1.5.671,2.3.891a3.3,3.3,0,0,0,2.309-.172,8.084,8.084,0,0,1,1.072-.472,2.459,2.459,0,0,1,1.114.116,1.818,1.818,0,0,0,1.86-.9A.553.553,0,0,0,335.572,301.293Z" transform="translate(-278.226 -289.533)" fill="#f5cd49"/>
  <path id="Path_25006" data-name="Path 25006" d="M332.15,285.877a3.738,3.738,0,0,0-2.127-.087c-.783.2-1.382.673-2.226.544a13.894,13.894,0,0,1-2.137-.7,5.532,5.532,0,0,0-1.941-.28c-2.694.116-4.9,1.995-7.514,2.424-1.594.261-3.152-.265-4.708-.53a9.653,9.653,0,0,0-4.452.266,16.842,16.842,0,0,0-4.107,1.966,10.642,10.642,0,0,1-2.068,1.158,5.035,5.035,0,0,1-2.484.127,13.586,13.586,0,0,0-4.818-.4,6.993,6.993,0,0,0-3.869,2.276c-.157.174.091.427.258.259a6.8,6.8,0,0,1,3.721-1.846,13.171,13.171,0,0,1,4.411.463,5.866,5.866,0,0,0,4.172-.642,30.284,30.284,0,0,1,4.039-2.222,9.172,9.172,0,0,1,4.383-.677,40.185,40.185,0,0,0,4.633.727c2.656-.009,4.833-1.728,7.344-2.323a4.793,4.793,0,0,1,2.135-.07c.791.175,1.511.567,2.282.8a3.423,3.423,0,0,0,2.326-.05,3.345,3.345,0,0,1,2.485-.243C332.491,287.028,332.749,286.077,332.15,285.877Z" transform="translate(-275.823 -275.398)" fill="#f5cd49"/>
</svg>
