<svg xmlns="http://www.w3.org/2000/svg" width="102.026" height="78.095" viewBox="0 0 102.026 78.095">
  <g id="Group_37798" data-name="Group 37798" transform="translate(-320.513 -2735.409)">
    <path id="Path_518" data-name="Path 518" d="M385.2,2749a25.089,25.089,0,1,0,25.089,25.089A25.117,25.117,0,0,0,385.2,2749Z" transform="translate(12.25 4.206)" fill="#0232eb"/>
    <path id="Path_519" data-name="Path 519" d="M345.6,2791.272a15.4,15.4,0,0,1-15.38-15.38h-9.71a25.089,25.089,0,0,0,50.178,0h-9.709A15.4,15.4,0,0,1,345.6,2791.272Z" transform="translate(0 12.524)" fill="#0232eb"/>
    <path id="Path_520" data-name="Path 520" d="M360.927,2740.679a25.076,25.076,0,1,0,9.7,21.024h.062v-26.295h-9.764Zm-15.325,35.2a15.381,15.381,0,1,1,1.944-30.623,8.053,8.053,0,1,0,11.74,8.259,15.23,15.23,0,0,1,1.641,5.918v2.133A15.388,15.388,0,0,1,345.6,2775.878Z" transform="translate(0 0)" fill="#0232eb"/>
    <path id="Path_22197" data-name="Path 22197" d="M25.153.822a2.739,2.739,0,1,1,3.911,3.835L14.489,22.876a2.739,2.739,0,0,1-3.943.073L.887,13.288a2.739,2.739,0,1,1,3.87-3.87L12.4,17.059,25.079.9a.92.92,0,0,1,.073-.08Z" transform="matrix(0.966, 0.259, -0.259, 0.966, 386.108, 2763.467)" fill="#fafbfb" fill-rule="evenodd"/>
  </g>
</svg>
