<svg id="Withdraw" xmlns="http://www.w3.org/2000/svg" width="48" height="48" viewBox="0 0 48 48">
  <g id="Bg" fill="none" stroke="#f7f4e1" stroke-width="1.5">
    <rect width="48" height="48" rx="8" stroke="none"/>
    <rect x="0.75" y="0.75" width="46.5" height="46.5" rx="7.25" fill="none"/>
  </g>
  <g id="Icon_-_Withdraw" data-name="Icon - Withdraw" transform="translate(9 10.8)">
    <path id="Union" d="M4.385,0A4.363,4.363,0,0,0,0,4.341v6.4a4.363,4.363,0,0,0,4.385,4.341.685.685,0,1,0,0-1.371,2.985,2.985,0,0,1-3-2.97v-6.4a2.985,2.985,0,0,1,3-2.97H25.615a2.985,2.985,0,0,1,3,2.97v6.4a2.985,2.985,0,0,1-3,2.97.685.685,0,1,0,0,1.371A4.363,4.363,0,0,0,30,10.738v-6.4A4.363,4.363,0,0,0,25.615,0Z" transform="translate(0 0)" fill="#f7f4e1"/>
    <path id="Union-2" data-name="Union" d="M6.667,24.515V6.6H23.333V24.515A1.824,1.824,0,0,1,21.579,26.4H8.421A1.824,1.824,0,0,1,6.667,24.515Z" transform="translate(0 0)" fill="#f7f4e1"/>
    <path id="Path_27704" data-name="Path 27704" d="M-5.752-7.617v6.064h2.373a.811.811,0,0,0,.645-.269A1.115,1.115,0,0,0-2.5-2.578V-10.01H-.977v7.686a2.917,2.917,0,0,1-.132.879,2,2,0,0,1-.42.742,2.045,2.045,0,0,1-.732.513A2.679,2.679,0,0,1-3.32,0H-7.246V-7.617ZM-9.619,0V-10.01h3.926a2.679,2.679,0,0,1,1.06.19,2.045,2.045,0,0,1,.732.513,2,2,0,0,1,.42.742,2.917,2.917,0,0,1,.132.879V-2.4H-4.873V-7.441A1.111,1.111,0,0,0-5.107-8.2a.818.818,0,0,0-.645-.264H-8.125V0Z" transform="translate(20.298 21.505)" fill="#ff6701"/>
  </g>
</svg>
