<svg xmlns="http://www.w3.org/2000/svg" xmlns:xlink="http://www.w3.org/1999/xlink" width="281" height="234" viewBox="0 0 281 234">
  <defs>
    <clipPath id="clip-path">
      <path id="Path_27658" data-name="Path 27658" d="M0-47.5H35.478v35.478H0Z"/>
    </clipPath>
  </defs>
  <g id="Ilustration" transform="translate(-47 -117)">
    <g id="t_shirt">
      <rect id="square_2" width="66.071" height="66.071" rx="7" transform="translate(47 117)" fill="#f6f6f7"/>
      <g id="T_shirt-2" data-name="T_shirt">
        <g id="Group_530" data-name="Group 530">
          <path id="Vector_83" data-name="Vector 83" d="M73.617,129.785a6.427,6.427,0,0,0,6.418,6.045v35.155H66.055a1,1,0,0,1-1-1V145.513a1,1,0,0,0-1.261-.965l-2.975.8a1,1,0,0,1-1.215-.665l-2.661-8.46a1,1,0,0,1,.567-1.222l14.629-6.143A1.1,1.1,0,0,1,73.617,129.785Z" fill="#7bcfe9"/>
          <path id="Vector_87" data-name="Vector 87" d="M86.454,129.785a6.427,6.427,0,0,1-6.418,6.045v35.155h13.98a1,1,0,0,0,1-1V145.513a1,1,0,0,1,1.261-.965l2.975.8a1,1,0,0,0,1.215-.665l2.662-8.46a1,1,0,0,0-.567-1.222l-14.629-6.143A1.1,1.1,0,0,0,86.454,129.785Z" fill="#7bcfe9"/>
        </g>
        <path id="Ellipse_42" data-name="Ellipse 42" d="M80.035,135.129c4.229,0,5.406-2.989,5.606-5.849a.949.949,0,0,0-.966-1H75.4a.949.949,0,0,0-.966,1C74.63,132.14,75.807,135.129,80.035,135.129Z" fill="#54b7d6"/>
        <path id="Ellipse_43" data-name="Ellipse 43" d="M86.965,146.813a2.1,2.1,0,0,0,2.1-2.1v-1.434a.5.5,0,0,0-.5-.5H85.37a.5.5,0,0,0-.5.5v1.434A2.1,2.1,0,0,0,86.965,146.813Z" fill="#fff"/>
      </g>
    </g>
    <g id="pants">
      <rect id="square_3" width="66.071" height="90.243" rx="7" transform="translate(47 188.711)" fill="#f6f6f7"/>
      <g id="pants_2">
        <path id="Vector_3" d="M96.51,261.87H87.522l-7.38-41.283a.26.26,0,0,0-.511,0l-7.38,41.283H63.263l1.654-46.9v-2.774l.3-5.611H94.62l.236,3.85v4.535Z" fill="#57636f"/>
        <path id="Vector_4" d="M87.474,261.87l.559,3.124a1.3,1.3,0,0,0,1.277,1.069h5.956a1.3,1.3,0,0,0,1.3-1.343l-.1-2.85Z" fill="#acbac3"/>
        <path id="Vector_5" d="M72.2,261.87l-.558,3.124a1.3,1.3,0,0,1-1.277,1.069H64.412a1.3,1.3,0,0,1-1.3-1.343l.1-2.85Z" fill="#acbac3"/>
        <path id="Vector_6" d="M96.461,261.87H93.314l.148,4.193h1.8a1.3,1.3,0,0,0,1.3-1.343Z" fill="#7a8d9c"/>
        <path id="Vector_7" d="M94.112,202.922v3.746H65.565v-3.746a1.291,1.291,0,0,1,1.261-1.319H92.85A1.291,1.291,0,0,1,94.112,202.922Z" fill="#57636f"/>
        <path id="Vector_8" d="M63.364,261.87h3.147l-.148,4.193h-1.8a1.3,1.3,0,0,1-1.3-1.343Z" fill="#7a8d9c"/>
        <path id="Vector_9" d="M69.709,201.6l-.7,2.656a3.982,3.982,0,0,1-3.9,2.869h0l.207-5.525Z" fill="#acbac3"/>
        <path id="Vector_10" d="M89.968,201.6l.7,2.656a3.982,3.982,0,0,0,3.9,2.869h0l-.207-5.525Z" fill="#acbac3"/>
        <path id="Vector_11" d="M65.105,207.128h0l.2-5.525h2.1l-.175,4.892A3.87,3.87,0,0,1,65.105,207.128Z" fill="#7a8d9c"/>
        <path id="Vector_12" d="M94.572,207.128h0l-.2-5.525h-2.1l.175,4.892A3.87,3.87,0,0,0,94.572,207.128Z" fill="#7a8d9c"/>
        <circle id="Ellipse_44" data-name="Ellipse 44" cx="0.691" cy="0.691" r="0.691" transform="translate(79.378 202.524)" fill="#f6f6f7"/>
      </g>
    </g>
    <g id="Dress">
      <rect id="square_4" width="66.071" height="90.243" rx="7" transform="translate(120.323 117)" fill="#f6f6f7"/>
      <g id="dresses" transform="translate(131.337 138.17)">
        <path id="Path_1477" data-name="Path 1477" d="M118.079,15.124v1.787H107.242c.059.891.1,1.783.113,2.68h14.3c.011-.9.053-1.789.113-2.68h-1.9V15.124h2.05a50.582,50.582,0,0,1,3.01-12.76l-2.858-.844a4.455,4.455,0,0,1-7.562,4.651,4.454,4.454,0,0,1-7.561-4.651l-2.858.844a50.618,50.618,0,0,1,3.01,12.76Zm0,0" transform="translate(-92.483 -1.351)" fill="#f83838"/>
        <path id="Path_1478" data-name="Path 1478" d="M289.54,28.643l-3.85-6.323a48.853,48.853,0,0,0-2.158,8.325Zm0,0" transform="translate(-251.891 -19.828)" fill="#f83838"/>
        <path id="Path_1479" data-name="Path 1479" d="M144.075,4.841a2.673,2.673,0,0,0,2.161-1.1A5.348,5.348,0,0,1,142.5,0a2.675,2.675,0,0,0,1.576,4.841Zm0,0" transform="translate(-125.626 0)" fill="#f83838"/>
        <path id="Path_1480" data-name="Path 1480" d="M212.2,4.841A2.675,2.675,0,0,0,213.78,0a5.354,5.354,0,0,1-3.737,3.737,2.672,2.672,0,0,0,2.161,1.1Zm0,0" transform="translate(-186.609)" fill="#f83838"/>
        <path id="Path_1481" data-name="Path 1481" d="M61.3,22.32l-3.85,6.323,6.008,2A48.828,48.828,0,0,0,61.3,22.32Zm0,0" transform="translate(-51.057 -19.828)" fill="#f83838"/>
        <path id="Path_1482" data-name="Path 1482" d="M41.207,195.725A40.327,40.327,0,0,1,29.63,179.351H14.758A40.327,40.327,0,0,1,3.182,195.725l-3.01,2.55A5.392,5.392,0,0,0,5.631,200.2l1.407-.332-.332,1.408a5.358,5.358,0,0,0,8.889,5.132l1.052-.991.417,1.385a5.358,5.358,0,0,0,10.262,0l.416-1.385,1.053.991a5.359,5.359,0,0,0,8.889-5.132l-.332-1.408,1.407.332a5.389,5.389,0,0,0,5.459-1.922Zm-30.3,10.32-1.547-.893.893-1.547,1.547.893Zm12.179,2.785H21.3v-1.787h1.787Zm10.393-2.785-.893-1.547,1.547-.893.893,1.547Zm0,0" transform="translate(-0.172 -159.324)" fill="#f83838"/>
      </g>
    </g>
    <g id="shoes">
      <rect id="square_5" width="50" height="49" rx="7" transform="translate(194 118)" fill="#f6f6f7"/>
      <g id="Shoes-2" data-name="Shoes">
        <path id="Vector_88" data-name="Vector 88" d="M225.88,131c-2.64,7.392-12.687,11.618-17.38,12.571a23.361,23.361,0,0,0,3.143,5.029H236V132.76Z" fill="#018790"/>
        <path id="Rectangle_29" data-name="Rectangle 29" d="M203,148.6h33V151a2,2,0,0,1-2,2H205a2,2,0,0,1-2-2Z" fill="#fff"/>
        <path id="Ellipse_45" data-name="Ellipse 45" d="M208.5,143.571a5.5,5.5,0,0,0-5.5,5.5h11A5.5,5.5,0,0,0,208.5,143.571Z" fill="#fff"/>
        <path id="Rectangle_30" data-name="Rectangle 30" d="M214,141.686l1.4-.613,1.344,3.075a.765.765,0,0,1-1.4.613Z" fill="#fff"/>
        <path id="Rectangle_31" data-name="Rectangle 31" d="M216.357,140.429l1.332-.754,1.652,2.922a.765.765,0,1,1-1.331.753Z" fill="#fff"/>
        <path id="Rectangle_32" data-name="Rectangle 32" d="M218.84,138.92l1.252-.88,1.93,2.746a.765.765,0,1,1-1.252.88Z" fill="#fff"/>
        <path id="Rectangle_33" data-name="Rectangle 33" d="M220.6,137.728l1.151-1.008,2.211,2.525a.765.765,0,1,1-1.151,1.008Z" fill="#fff"/>
        <path id="Rectangle_34" data-name="Rectangle 34" d="M222.36,136.2l1.1-1.1,2.677,2.112a.766.766,0,0,1-.947,1.2Z" fill="#fff"/>
        <path id="Rectangle_35" data-name="Rectangle 35" d="M224.12,134.3l.88-1.32,2.753,2.238a.769.769,0,0,1-.963,1.2Z" fill="#fff"/>
        <circle id="Ellipse_46" data-name="Ellipse 46" cx="2.64" cy="2.64" r="2.64" transform="translate(227.64 140.68)" fill="#fff"/>
      </g>
    </g>
    <g id="heels">
      <g id="Group_669" data-name="Group 669">
        <rect id="Rectangle_31_2" data-name="Rectangle 31_2" width="50" height="48" rx="7" transform="translate(194 230)" fill="#f6f6f7"/>
        <g id="female-baby-bib-with-a-little-star" transform="translate(204.578 241.314)">
          <g id="Group_1505" data-name="Group 1505" transform="translate(0 0)">
            <path id="Path_1462" data-name="Path 1462" d="M26.409,29.24c-.487-6.151-6.6-12.285-6.6-12.285H18.718a5.705,5.705,0,1,1-8.487,0H9.139s-6.1,6.124-6.6,12.269a3.075,3.075,0,0,0,.1,6.073,3.075,3.075,0,0,0,4.124,3.709A3.067,3.067,0,0,0,11.8,40.755a3.063,3.063,0,0,0,5.316.061,3.065,3.065,0,0,0,4.964-1.809A3.056,3.056,0,0,0,26.205,35.3a3.079,3.079,0,0,0,.2-6.058ZM17.6,33.078l-1.4,1.016.534,1.643c.295.908-.092,1.189-.864.628l-1.4-1.015-1.4,1.015c-.771.561-1.158.28-.863-.627l.534-1.643-1.4-1.016c-.772-.561-.625-1.015.33-1.015h1.728l.534-1.643c.295-.907.773-.907,1.068,0l.534,1.643h1.728C18.226,32.063,18.373,32.518,17.6,33.078Z" transform="translate(0 -16.955)" fill="#ff809f"/>
          </g>
        </g>
      </g>
    </g>
    <g id="make_up" data-name="make up">
      <rect id="square_6" width="79" height="79" rx="7" transform="translate(249 117)" fill="#f6f6f7"/>
      <g id="Group_37713" data-name="Group 37713" transform="translate(264.896 132.896)">
        <path id="Path_27684" data-name="Path 27684" d="M24.562,34.549H12.507A1.507,1.507,0,0,1,11,33.042V25.507A1.507,1.507,0,0,1,12.507,24H24.562a1.507,1.507,0,0,1,1.507,1.507v7.535A1.507,1.507,0,0,1,24.562,34.549ZM14.014,31.535h9.042V27.014H14.014Z" transform="translate(5.069 11.659)" fill="#c9c1f5"/>
        <rect id="Rectangle_17499" data-name="Rectangle 17499" width="0.995" height="4.521" transform="translate(18.089 38.673)" fill="#b0aae8"/>
        <path id="Path_27685" data-name="Path 27685" d="M20.335,24H19.34a1.507,1.507,0,0,1,1.507,1.507v7.535a1.507,1.507,0,0,1-1.507,1.507h.995a1.507,1.507,0,0,0,1.507-1.507V25.507A1.507,1.507,0,0,0,20.335,24Z" transform="translate(9.297 11.659)" fill="#b0aae8"/>
        <path id="Path_27686" data-name="Path 27686" d="M36.646,32.014H6.507a1.507,1.507,0,1,1,0-3.014H36.646a1.507,1.507,0,0,1,0,3.014Z" transform="translate(2.028 14.194)" fill="#d6b5b0"/>
        <path id="Path_27687" data-name="Path 27687" d="M36.6,29h-.136a1.371,1.371,0,0,1,.136.618,1.507,1.507,0,0,1-1.507,1.507h-30a1.507,1.507,0,0,0,1.371.889H36.6A1.507,1.507,0,0,0,36.6,29Z" transform="translate(2.073 14.194)" fill="#c4a19d"/>
        <path id="Path_27688" data-name="Path 27688" d="M19.042,1A9.042,9.042,0,0,0,10,10.042v22.6a1.507,1.507,0,0,0,1.507,1.507H26.576a1.507,1.507,0,0,0,1.507-1.507v-22.6A9.042,9.042,0,0,0,19.042,1Z" transform="translate(4.562)" fill="#ff9797"/>
        <path id="Path_27689" data-name="Path 27689" d="M18.266,1A9.042,9.042,0,0,0,11.53,4.014,9.042,9.042,0,0,1,26.042,11.2v22.6a2.14,2.14,0,0,1,0,.3,1.507,1.507,0,0,0,1.266-1.462v-22.6A9.042,9.042,0,0,0,18.266,1Z" transform="translate(5.338)" fill="#f28686"/>
        <path id="Path_27690" data-name="Path 27690" d="M36.646,13.014H6.507a1.507,1.507,0,1,1,0-3.014H36.646a1.507,1.507,0,0,1,0,3.014Z" transform="translate(2.028 4.562)" fill="#eef5fd"/>
        <path id="Path_27691" data-name="Path 27691" d="M6.507,10.995H36.646a1.507,1.507,0,0,1,1.4,1.01,1.4,1.4,0,0,0,.105-.5A1.507,1.507,0,0,0,36.646,10H6.507A1.507,1.507,0,0,0,5,11.507a1.4,1.4,0,0,0,.105.5,1.507,1.507,0,0,1,1.4-1.01Z" transform="translate(2.028 4.562)" fill="#dce9f4"/>
        <rect id="Rectangle_17500" data-name="Rectangle 17500" width="9" height="18" rx="1" transform="translate(1 7)" fill="#c9c1f5"/>
        <rect id="Rectangle_17501" data-name="Rectangle 17501" width="9" height="18" rx="1" transform="translate(37 7)" fill="#c9c1f5"/>
        <path id="Path_27692" data-name="Path 27692" d="M10.042,6.507V21.576a1.507,1.507,0,0,1-1.507,1.507H2.507A1.507,1.507,0,0,1,1,21.983H7.209a1.507,1.507,0,0,0,1.507-1.507V5.407a1.206,1.206,0,0,0,0-.407A1.507,1.507,0,0,1,10.042,6.507Zm36.166,0V21.576A1.507,1.507,0,0,1,44.7,23.083H38.673a1.507,1.507,0,0,1-1.507-1.1h6.148a1.507,1.507,0,0,0,1.507-1.507V5.407a1.206,1.206,0,0,0,0-.407A1.507,1.507,0,0,1,46.208,6.507Z" transform="translate(0 2.028)" fill="#b0aae8"/>
        <rect id="Rectangle_17502" data-name="Rectangle 17502" width="33" height="9" rx="1" transform="translate(7 30)" fill="#d6b5b0"/>
        <path id="Path_27693" data-name="Path 27693" d="M36.646,20H6.507A1.507,1.507,0,0,0,5,21.507H35.139a1.507,1.507,0,0,1,1.507,1.507v6.028a1.507,1.507,0,0,0,1.507-1.507V21.507A1.507,1.507,0,0,0,36.646,20Z" transform="translate(2.028 9.632)" fill="#c4a19d"/>
      </g>
    </g>
    <g id="children_clothes" data-name="children clothes">
      <g id="Group_538" data-name="Group 538">
        <rect id="square_7" width="66.071" height="65.265" rx="7" transform="translate(120.016 213.689)" fill="#f6f6f7"/>
      </g>
      <g id="Group_37712" data-name="Group 37712" transform="translate(133.967 227.342)">
        <path id="Path_27679" data-name="Path 27679" d="M20.485,2.21A7.96,7.96,0,0,0,12.053.568l4.708,4.566a.838.838,0,0,1,0,1.21l-2.995,2.9a.91.91,0,0,1-1.251,0L7.807,4.677a7.366,7.366,0,0,0,1.7,8.171A7.958,7.958,0,0,0,18.1,14.425L33.211,31.065a4.392,4.392,0,0,0,6.274.19,4.076,4.076,0,0,0-.136-6.019l-17.066-15.1a7.378,7.378,0,0,0-1.8-7.928Zm17.54,27.639a2.476,2.476,0,0,1-3.433,0,2.3,2.3,0,0,1,0-3.327,2.475,2.475,0,0,1,3.427.006,2.293,2.293,0,0,1,.006,3.321Z" transform="translate(-2.838 0)" fill="#365a6b"/>
        <path id="Path_27680" data-name="Path 27680" d="M22.2,22.411,33.941,7.32,34.16,5.7l2.834-2.3,1.654,1.21L37.143,7.877,35.6,8.529,23.854,23.621Z" transform="translate(-8.929 -1.38)" fill="#cad6e0"/>
        <path id="Path_27681" data-name="Path 27681" d="M16.088,39.829,7.2,51.261a2.553,2.553,0,0,1-3.487.522L1.227,49.969a2.368,2.368,0,0,1-.445-3.392L9.671,35.15Z" transform="translate(0 -14.303)" fill="#ffcf5a"/>
        <path id="Path_27682" data-name="Path 27682" d="M22.178,39.129l-8.349-6.1a.77.77,0,0,1-.16-1.1l.617-.795a.827.827,0,0,1,1.133-.154l8.349,6.1a.77.77,0,0,1,.16,1.1l-.617.795a.821.821,0,0,1-1.133.154Z" transform="translate(-5.391 -12.542)" fill="#ff664b"/>
        <path id="Path_27683" data-name="Path 27683" d="M11.253,41.152l-6.066,7.8-.937-.688,6.066-7.792Zm1.8,1.316-6.06,7.8-.937-.688,6.066-7.792Zm1.8,1.316L8.786,51.577l-.937-.682L13.916,43.1Z" transform="translate(-1.623 -16.468)" fill="#ffb447"/>
      </g>
    </g>
    <g id="underwear">
      <rect id="square_8" width="50" height="48" rx="7" transform="translate(194 174)" fill="#f6f6f7"/>
      <g id="Group_37714" data-name="Group 37714" transform="translate(178.118 157.121)">
        <path id="Path_27694" data-name="Path 27694" d="M93.922,105.022a11.027,11.027,0,0,0,6.384-2.027.555.555,0,0,0-.64-.908,10.042,10.042,0,1,1,2.825-3.049.555.555,0,1,0,.952.571,11.093,11.093,0,1,0-9.521,5.414Z" transform="translate(-53.04 -53.041)" fill="#d3d3d3"/>
        <path id="Path_27695" data-name="Path 27695" d="M40.881,24.228A16.67,16.67,0,0,0,24.23,40.879a16.472,16.472,0,0,0,3.626,10.367.555.555,0,0,0,.868-.692,15.373,15.373,0,0,1-3.384-9.675,15.539,15.539,0,0,1,24.349-12.8.555.555,0,1,0,.63-.914A16.554,16.554,0,0,0,40.881,24.228ZM31.808,53.493a.555.555,0,1,0-.649.9A16.649,16.649,0,0,0,55.041,32.12a.555.555,0,0,0-.944.585,15.539,15.539,0,0,1-22.29,20.789Z" fill="#d3d3d3"/>
        <circle id="Ellipse_1152" data-name="Ellipse 1152" cx="4.995" cy="4.995" r="4.995" transform="translate(35.886 35.884)" fill="#ffbe55"/>
        <path id="Path_27696" data-name="Path 27696" d="M291.218,54.326a3.33,3.33,0,1,1,3.33-3.33A3.33,3.33,0,0,1,291.218,54.326Z" transform="translate(-238.681 -21.218)" fill="#2a94f4"/>
        <circle id="Ellipse_1153" data-name="Ellipse 1153" cx="2.22" cy="2.22" r="2.22" transform="translate(27.512 50.14)" fill="#0b4870"/>
        <path id="Path_27697" data-name="Path 27697" d="M253.056,248.619a2.668,2.668,0,1,1,2.668-2.668A2.668,2.668,0,0,1,253.056,248.619Z" transform="translate(-204.733 -198.304)" fill="#0e538c"/>
        <circle id="Ellipse_1154" data-name="Ellipse 1154" cx="0.555" cy="0.555" r="0.555" transform="translate(25.895 26.448)" fill="#ffbe55"/>
        <path id="Path_27698" data-name="Path 27698" d="M77.518,31.2a.554.554,0,1,1,.392-.162A.555.555,0,0,1,77.518,31.2Z" transform="translate(-47.737 -5.306)" fill="#ffbe55"/>
        <circle id="Ellipse_1155" data-name="Ellipse 1155" cx="0.555" cy="0.555" r="0.555" transform="translate(55.868 54.755)" fill="#ffbe55"/>
        <circle id="Ellipse_1156" data-name="Ellipse 1156" cx="0.555" cy="0.555" r="0.555" transform="translate(55.868 50.315)" fill="#ffbe55"/>
        <circle id="Ellipse_1157" data-name="Ellipse 1157" cx="0.555" cy="0.555" r="0.555" transform="translate(56.423 31.999)" fill="#ffbe55"/>
        <circle id="Ellipse_1158" data-name="Ellipse 1158" cx="0.555" cy="0.555" r="0.555" transform="translate(53.647 39.214)" fill="#ffbe55"/>
        <circle id="Ellipse_1159" data-name="Ellipse 1159" cx="0.555" cy="0.555" r="0.555" transform="translate(34.221 27.558)" fill="#ffbe55"/>
        <path id="Path_27699" data-name="Path 27699" d="M31.767,353.446a.555.555,0,1,1,.555-.555.555.555,0,0,1-.555.555Z" transform="translate(-6.321 -297.025)" fill="#ffbe55"/>
      </g>
    </g>
    <g id="Laptop">
      <rect id="square_9" width="79" height="77" rx="7" transform="translate(249 201)" fill="#f6f6f7"/>
      <g id="Group_37711" data-name="Group 37711" transform="translate(260.098 211.097)">
        <circle id="Ellipse_1151" data-name="Ellipse 1151" cx="2" cy="2" r="2" transform="translate(8.902 8.903)" fill="#fbb03b"/>
        <rect id="Rectangle_17491" data-name="Rectangle 17491" width="1" height="2" transform="translate(10.902 4.903)" fill="#fbb03b"/>
        <rect id="Rectangle_17492" data-name="Rectangle 17492" width="1" height="3" transform="translate(10.902 13.903)" fill="#fbb03b"/>
        <rect id="Rectangle_17493" data-name="Rectangle 17493" width="3" height="1" transform="translate(13.902 10.903)" fill="#fbb03b"/>
        <rect id="Rectangle_17494" data-name="Rectangle 17494" width="2" height="1" transform="translate(4.902 10.903)" fill="#fbb03b"/>
        <rect id="Rectangle_17495" data-name="Rectangle 17495" width="1.064" height="2.127" transform="translate(6.288 7.033) rotate(-45)" fill="#fbb03b"/>
        <rect id="Rectangle_17496" data-name="Rectangle 17496" width="1.064" height="2.127" transform="translate(13.051 13.802) rotate(-45)" fill="#fbb03b"/>
        <rect id="Rectangle_17497" data-name="Rectangle 17497" width="2.127" height="1.064" transform="translate(13.054 7.793) rotate(-45)" fill="#fbb03b"/>
        <rect id="Rectangle_17498" data-name="Rectangle 17498" width="2.127" height="1.064" transform="translate(6.285 14.551) rotate(-45)" fill="#fbb03b"/>
        <path id="Path_27660" data-name="Path 27660" d="M75.913,10a6.913,6.913,0,1,0,6.913,6.913A6.913,6.913,0,0,0,75.913,10Zm.75,10.321a1.064,1.064,0,1,1,0-1.5,1.064,1.064,0,0,1,0,1.5ZM77.8,17.663a2.659,2.659,0,0,0-3.765,0l-.776-.75a3.722,3.722,0,0,1,5.318,0Zm1.877-1.877a5.318,5.318,0,0,0-7.519,0L71.4,15.03a6.381,6.381,0,0,1,9.04,0Z" transform="translate(-30.021 -2.394)" fill="#ed5d5d"/>
        <path id="Path_27661" data-name="Path 27661" d="M50.694,57.6H31.588v4.254h9.04a3.191,3.191,0,0,1,3.191,3.191H14.04a3.191,3.191,0,0,1,3.191-3.191h9.077V57.6H7.164A2.022,2.022,0,0,1,5,55.77a1.6,1.6,0,0,1,.032-.3L9.7,32.548a2.09,2.09,0,0,1,2.127-1.521H40.5a6.913,6.913,0,0,0,7.806,2.244l4.52,22.2A1.949,1.949,0,0,1,50.694,57.6Z" transform="translate(-0.053 -12.239)" fill="#ccc"/>
        <path id="Path_27662" data-name="Path 27662" d="M71.951,49.381,70.93,43h8.545l1.3,6.381Z" transform="translate(-30.924 -17.846)" fill="#0232eb"/>
        <path id="Path_27663" data-name="Path 27663" d="M74.191,63.381,73.17,57h8.87l1.3,6.381Z" transform="translate(-31.973 -24.402)" fill="#0232eb"/>
        <path id="Path_27664" data-name="Path 27664" d="M76.176,75.786,75.41,71H84.6l.691,3.281a1.064,1.064,0,0,1-.245.909,1.765,1.765,0,0,1-1.388.6Z" transform="translate(-33.022 -30.957)" fill="#0232eb"/>
        <path id="Path_27665" data-name="Path 27665" d="M51,75.786V71H62.906l.766,4.786Z" transform="translate(-21.592 -30.957)" fill="#0232eb"/>
        <path id="Path_27666" data-name="Path 27666" d="M51,36.786V32h8.588l.766,4.786Z" transform="translate(-21.592 -12.696)" fill="#0232eb"/>
        <path id="Path_27667" data-name="Path 27667" d="M31.41,36.786,32.176,32h8.588v4.786Z" transform="translate(-12.419 -12.696)" fill="#0232eb"/>
        <path id="Path_27668" data-name="Path 27668" d="M25.17,75.786,25.936,71H37.842v4.786Z" transform="translate(-9.497 -30.957)" fill="#0232eb"/>
        <path id="Path_27669" data-name="Path 27669" d="M7.618,75.786a1.765,1.765,0,0,1-1.367-.6,1.064,1.064,0,0,1-.266-.909L6.677,71h9.194L15.1,75.786Z" transform="translate(-0.507 -30.957)" fill="#0232eb"/>
        <path id="Path_27670" data-name="Path 27670" d="M7.7,63.381,9,57h8.87l-1.021,6.381Z" transform="translate(-1.317 -24.402)" fill="#0232eb"/>
        <path id="Path_27671" data-name="Path 27671" d="M10.55,49.381,11.847,43H20.4l-1.021,6.381Z" transform="translate(-2.652 -17.846)" fill="#0232eb"/>
        <path id="Path_27672" data-name="Path 27672" d="M13.381,36.784l.755-3.69a1.6,1.6,0,0,1,1.6-1.1h6.913l-.766,4.786H13.37Z" transform="translate(-3.972 -12.694)" fill="#0232eb"/>
        <path id="Path_27673" data-name="Path 27673" d="M51,63.381V57H61.715l1.021,6.381Z" transform="translate(-21.592 -24.402)" fill="#0232eb"/>
        <path id="Path_27674" data-name="Path 27674" d="M51,49.381V43h9.524l1.021,6.381Z" transform="translate(-21.592 -17.846)" fill="#0232eb"/>
        <path id="Path_27675" data-name="Path 27675" d="M29.17,49.381,30.191,43h9.524v6.381Z" transform="translate(-11.37 -17.846)" fill="#0232eb"/>
        <path id="Path_27676" data-name="Path 27676" d="M26.93,63.381,27.951,57H38.666v6.381Z" transform="translate(-10.322 -24.402)" fill="#0232eb"/>
        <path id="Path_27677" data-name="Path 27677" d="M69.936,36.786,69.17,32h1.122a7.445,7.445,0,0,0,7.657,2.4l.489,2.388H69.93Z" transform="translate(-30.1 -12.696)" fill="#0232eb"/>
        <path id="Path_27678" data-name="Path 27678" d="M28.929,21.167V55.2H14.04a3.191,3.191,0,0,1,3.191-3.191h9.077V47.755H7.164A2.022,2.022,0,0,1,5,45.925a1.6,1.6,0,0,1,.032-.3L9.7,22.7a2.09,2.09,0,0,1,2.127-1.521H28.929Zm17.016-7.976a6.381,6.381,0,0,0-4.515,1.861l.755.755a5.318,5.318,0,0,1,3.76-1.553v1.6a3.722,3.722,0,0,0-2.659,1.064l.75.75a2.659,2.659,0,0,1,1.909-.75v1.6a1.064,1.064,0,0,0,0,2.127v3.191a6.913,6.913,0,1,1,0-13.826Z" transform="translate(-0.053 -2.394)" fill="#fff" opacity="0.2"/>
      </g>
    </g>
    <g id="Sofa">
      <rect id="square_10" width="66" height="66" rx="7" transform="translate(47 285)" fill="#f6f6f7"/>
      <g id="Group_10249" data-name="Group 10249" transform="translate(40.939 298.142)">
        <path id="Path_21319" data-name="Path 21319" d="M48.213,70.36a36.428,36.428,0,0,0-6.78,5.435,40.722,40.722,0,0,0-3.55,4.033c-.146-.127-.292-.258-.429-.395l-5.46-5.46L29.131,71.11a9.784,9.784,0,0,1-2.864-6.916V49.671H40.391V60.405a4.8,4.8,0,0,0,1.4,3.39l5.65,5.65A6.776,6.776,0,0,1,48.213,70.36Z" transform="translate(-4.922 -45.724)" fill="#a4c2f7"/>
        <path id="Path_21320" data-name="Path 21320" d="M47.448,38.632a7.059,7.059,0,0,1-9.565.395,40.733,40.733,0,0,1,3.55-4.033,36.427,36.427,0,0,1,6.78-5.435A7.056,7.056,0,0,1,47.448,38.632Zm-15.454-5.46-2.864-2.864a9.784,9.784,0,0,1-2.864-6.916V21.673c2.523-.214,5.167,2.094,6.137,5.523A8.215,8.215,0,0,1,31.995,33.172Zm5.157-18.159c0,2.741-3.494,5.058-3.494,5.058s-3.494-2.317-3.494-5.058a2.289,2.289,0,0,1,2.329-2.248,2.387,2.387,0,0,1,1.165.3,2.388,2.388,0,0,1,1.165-.3A2.289,2.289,0,0,1,37.151,15.013Zm3.24-8.579V8.869H26.267V6.434a.974.974,0,0,1,.974-.974H39.417A.974.974,0,0,1,40.391,6.434Z" transform="translate(-4.922 -4.922)" fill="#e8edfd"/>
        <path id="Path_21321" data-name="Path 21321" d="M206.11,114.571a36.428,36.428,0,0,0-6.78,5.435,40.723,40.723,0,0,0-3.55,4.033c-.146-.127-.292-.258-.429-.395l-5.46-5.46-2.864-2.864a9.784,9.784,0,0,1-2.864-6.916V93.882h14.124v10.734a4.8,4.8,0,0,0,1.4,3.39l5.65,5.65A6.78,6.78,0,0,1,206.11,114.571Z" transform="translate(-150.643 -86.525)" fill="#a4c2f7"/>
        <path id="Path_21322" data-name="Path 21322" d="M205.345,82.843a7.059,7.059,0,0,1-9.565.395,40.731,40.731,0,0,1,3.55-4.033,36.429,36.429,0,0,1,6.78-5.435A7.056,7.056,0,0,1,205.345,82.843Zm-15.454-5.46-2.864-2.864a9.784,9.784,0,0,1-2.864-6.916V65.884c2.523-.214,5.167,2.094,6.137,5.523A8.215,8.215,0,0,1,189.892,77.383Zm5.157-18.159c0,2.741-3.494,5.058-3.494,5.058s-3.494-2.317-3.494-5.058a2.289,2.289,0,0,1,2.329-2.248,2.387,2.387,0,0,1,1.165.3,2.388,2.388,0,0,1,1.165-.3A2.289,2.289,0,0,1,195.048,59.224Zm3.24-8.579V53.08H184.164V50.645a.974.974,0,0,1,.974-.974h12.176A.974.974,0,0,1,198.288,50.645Z" transform="translate(-150.643 -45.724)" fill="#e8edfd"/>
        <path id="Path_21323" data-name="Path 21323" d="M75.366,95.1a2.738,2.738,0,0,0-3.905,2.4c0,2.927,3.528,5.3,3.678,5.4a.411.411,0,0,0,.455,0c.15-.1,3.678-2.473,3.678-5.4A2.737,2.737,0,0,0,75.366,95.1Zm0,6.957c-.748-.555-3.083-2.455-3.083-4.552a1.919,1.919,0,0,1,2.883-1.585.412.412,0,0,0,.4,0,1.919,1.919,0,0,1,2.883,1.585C78.449,99.606,76.114,101.506,75.366,102.061Z" transform="translate(-46.631 -87.417)" fill="#428dff"/>
        <path id="Path_21324" data-name="Path 21324" d="M55.8,27.812h0v0h0c-.62-.888-.772-.878-6.463-6.617a4.413,4.413,0,0,1-1.282-3.1V4.922a1.387,1.387,0,0,0-1.385-1.385H35.881V1.512A1.387,1.387,0,0,0,34.5.127H22.319a1.387,1.387,0,0,0-1.385,1.385V18.471a10.263,10.263,0,0,0,2.984,7.207c8.832,8.817,8.263,8.3,8.774,8.738h0a7.5,7.5,0,0,0,9.135.4c2.639,2.626,2.554,2.583,3.038,3h0A7.473,7.473,0,0,0,55.8,27.812ZM47.234,4.922V6.946h-13.3V4.922a.564.564,0,0,1,.563-.563H46.671A.564.564,0,0,1,47.234,4.922Zm-8.11,26.032-2.449-2.448a9.433,9.433,0,0,1-2.743-6.625V20.559c2.235.053,4.479,2.227,5.33,5.237A8.045,8.045,0,0,1,39.124,30.954ZM21.756,1.512a.563.563,0,0,1,.563-.563H34.5a.564.564,0,0,1,.563.563V3.536h-13.3Zm0,16.959V17.15c2.235.053,4.479,2.227,5.33,5.237a8.044,8.044,0,0,1-.138,5.157L24.5,25.1A9.435,9.435,0,0,1,21.756,18.471Zm5.808,9.69a8.712,8.712,0,0,0,.313-6c-.949-3.359-3.528-5.779-6.121-5.832V4.359H33.232a1.373,1.373,0,0,0-.122.563V21.88a10.261,10.261,0,0,0,2.984,7.207l.414.414a43.621,43.621,0,0,0-3.6,4C32.841,33.438,33.335,33.931,27.565,28.161Zm5.973,5.878a41.231,41.231,0,0,1,3.552-3.957l4.148,4.148A6.69,6.69,0,0,1,33.538,34.039Zm6.2-2.469a8.712,8.712,0,0,0,.313-6c-.949-3.359-3.527-5.778-6.121-5.832V7.768h13.3V18.091a5.241,5.241,0,0,0,1.523,3.68c5.963,5.98,5.731,5.692,6.109,6.16a37.314,37.314,0,0,0-5.637,4.448,43.9,43.9,0,0,0-4.146,4.532C45,36.834,43.694,35.523,39.741,31.57Zm14.671,5.258a6.688,6.688,0,0,1-8.7.62,41.465,41.465,0,0,1,4.08-4.471,35.269,35.269,0,0,1,5.554-4.372A6.623,6.623,0,0,1,54.412,36.829Z" fill="#428dff"/>
        <path id="Path_21325" data-name="Path 21325" d="M233.263,139.313a2.737,2.737,0,0,0-3.905,2.4c0,2.928,3.528,5.3,3.678,5.4a.411.411,0,0,0,.455,0c.15-.1,3.678-2.473,3.678-5.4A2.737,2.737,0,0,0,233.263,139.313Zm0,6.957c-.748-.554-3.083-2.45-3.083-4.553a1.919,1.919,0,0,1,2.883-1.585.411.411,0,0,0,.4,0,1.92,1.92,0,0,1,2.883,1.585C236.346,143.816,234.011,145.716,233.263,146.271Z" transform="translate(-192.352 -128.217)" fill="#428dff"/>
      </g>
    </g>
    <g id="kitchen_tools" data-name="kitchen tools">
      <rect id="square_11" width="66" height="66" rx="7" transform="translate(120 285)" fill="#f6f6f7"/>
      <g id="Group_37709" data-name="Group 37709" transform="translate(135.261 346.761)" clip-path="url(#clip-path)">
        <path id="Path_27653" data-name="Path 27653" d="M20.162-45.96a9.638,9.638,0,0,1,6.258,3.033c1.749,1.75,3.524,3.666,3.524,5.6v16.062l-14.914.029v-16c-.087-1.405,1-8.729,5.131-8.729" transform="translate(-3.803 -0.39)" fill="#ea596e"/>
        <path id="Path_27654" data-name="Path 27654" d="M25-32.028v15.519c0,1.032.837,0,1.867,0v1.867a1.867,1.867,0,0,0,1.867-1.867V-31.135A9.642,9.642,0,0,1,25-32.028" transform="translate(-6.327 -3.916)" fill="#dd2e44"/>
        <path id="Path_27655" data-name="Path 27655" d="M26.386-42.7c2.487,2.232,3.993,4.889,2.764,6.254s-4.724.925-7.209-1.307-3.5-5.149-2.277-6.515,4.237-.665,6.721,1.568" transform="translate(-4.846 -0.642)" fill="#f4abba"/>
        <path id="Path_27656" data-name="Path 27656" d="M31.79-6.281a1.867,1.867,0,0,1-1.867,1.867H13.117A1.867,1.867,0,0,1,11.25-6.281v-5.6a1.867,1.867,0,0,1,1.867-1.867H29.923a1.867,1.867,0,0,1,1.867,1.867Z" transform="translate(-2.847 -8.542)" fill="#ffcc4d"/>
        <path id="Path_27657" data-name="Path 27657" d="M32.407-4.7A1.867,1.867,0,0,1,30.54-2.832H11.867A1.867,1.867,0,0,1,10-4.7v-.934A1.867,1.867,0,0,1,11.867-7.5H30.54a1.867,1.867,0,0,1,1.867,1.867Z" transform="translate(-2.531 -10.124)" fill="#ffac33"/>
      </g>
    </g>
    <g id="Guitar">
      <rect id="square_12" width="134" height="66" rx="7" transform="translate(194 285)" fill="#f6f6f7"/>
      <g id="Layer_2" data-name="Layer 2" transform="translate(212.938 279.18)">
        <path id="Path_27646" data-name="Path 27646" d="M91.308,35.353l.016,10.5a4.772,4.772,0,0,1-4.772,4.787H81.176l-1.638-.016a6.569,6.569,0,0,0-13.138,0v.016H33.62l-1.654-.016a6.561,6.561,0,0,0-13.122,0c0,.159,0,.318.016.477h-8a6.044,6.044,0,0,1-5.614-3.8A5.836,5.836,0,0,1,4.8,45.039a5.635,5.635,0,0,1,.111-1.161l.1-.525.3.064h5.6l2.656-4.151H5.85a5.988,5.988,0,0,1,4.628-4.231l11.2-.907a12.831,12.831,0,0,0,6.2-3.1C31.441,27.7,40.793,20.45,52.149,20.45c16.032,0,24.764,7.873,24.764,7.873l4.438,3.149c1.257.891,9.957,2.338,9.957,3.881Zm-18.132.429,1.861-2.927a10.507,10.507,0,0,0-4.119-3.769l-1.543,6.68Zm-9.114-.732,2.036-7.4a41.9,41.9,0,0,0-9.4-2.338l-2.5,9.734ZM59.768,46.582a1.591,1.591,0,0,0-1.591-1.591H48.253a1.591,1.591,0,0,0,0,3.181h9.925A1.591,1.591,0,0,0,59.768,46.582ZM48.507,34.256a73.277,73.277,0,0,0,2.068-8.986,28.553,28.553,0,0,0-17.845,7.666,14.338,14.338,0,0,1-1.622,1.32Z" fill="#49ccac"/>
        <path id="Path_27647" data-name="Path 27647" d="M50.1,35.3a6.561,6.561,0,1,1-6.569,6.569v-.016A6.558,6.558,0,0,1,50.1,35.3Z" transform="translate(22.87 8.769)" fill="#69737d"/>
        <path id="Path_27648" data-name="Path 27648" d="M56.7,31.049l-1.861,2.927-3.8-.016,1.543-6.68a10.507,10.507,0,0,1,4.119,3.77Zm-8.939-5.2-2.036,7.4H35.86l2.5-9.734A41.905,41.905,0,0,1,47.757,25.848Z" transform="translate(18.341 1.807)" fill="#65d5e9"/>
        <path id="Path_27649" data-name="Path 27649" d="M42.635,35.88a1.591,1.591,0,1,1,0,3.181H32.711a1.591,1.591,0,0,1,0-3.181Z" transform="translate(15.542 9.112)" fill="#69737d"/>
        <path id="Path_27650" data-name="Path 27650" d="M40.808,23.48a73.276,73.276,0,0,1-2.068,8.986H21.34a14.338,14.338,0,0,0,1.622-1.32A28.553,28.553,0,0,1,40.808,23.48Z" transform="translate(9.767 1.789)" fill="#65d5e9"/>
        <path id="Path_27651" data-name="Path 27651" d="M20.2,35.3a6.561,6.561,0,1,1-6.553,7.03c-.016-.159-.016-.318-.016-.477A6.558,6.558,0,0,1,20.2,35.3Z" transform="translate(5.214 8.769)" fill="#69737d"/>
        <path id="Path_27652" data-name="Path 27652" d="M13.487,32.28l-2.656,4.151h-5.6l-.3-.064.7-3.531a3.181,3.181,0,0,1,.143-.557Z" transform="translate(0.077 6.986)" fill="#ffcd58"/>
      </g>
    </g>
  </g>
</svg>
