<svg xmlns="http://www.w3.org/2000/svg" width="25.417" height="23.518" viewBox="0 0 25.417 23.518">
  <g id="noun_hanger_1576501" transform="translate(-5.755 -10.088)">
    <g id="Group_10218" data-name="Group 10218" transform="translate(5.91 10.238)">
      <path id="Path_21280" data-name="Path 21280" d="M19.549,962.6a2.988,2.988,0,0,0-2.982,2.991.293.293,0,1,0,.585,0A2.4,2.4,0,1,1,19.6,968a.3.3,0,0,0-.247.082l-.009.009a.3.3,0,0,0-.082.247v2.25L7.111,977.746a.309.309,0,0,0,.146.54h5.533c0,2.416,0,4.822,0,7.234a.3.3,0,0,0,.293.293h9.85a.3.3,0,0,0,.256-.082l.009-.009a.3.3,0,0,0,.082-.247v-1.235h2.094a.946.946,0,0,0,.942-.942v-5.012h5.524a.309.309,0,0,0,.155-.54l-12.155-7.161v-2.021a2.989,2.989,0,0,0-.293-5.963Zm0,8.487L30.771,977.7H26.308a1.63,1.63,0,0,0-1.619-1.5h-10.2a1.716,1.716,0,0,0-1.7,1.5H8.336Zm-5.058,5.7h8.2v5.57h-9.32V977.9A1.111,1.111,0,0,1,14.492,976.785Zm8.789,0h1.408a1.042,1.042,0,0,1,1.034.915H23.281Zm0,1.5h2.451V983.3a.357.357,0,0,1-.357.357H23.281Zm-9.905,4.655H22.7v2.286h-9.32Z" transform="translate(-7 -962.6)" fill="#121212" stroke="none" stroke-width="0.3" fill-rule="evenodd"/>
    </g>
  </g>
</svg>
