<svg xmlns="http://www.w3.org/2000/svg" width="40.225" height="43.862" viewBox="0 0 40.225 43.862">
  <g id="Group_37817" data-name="Group 37817" transform="translate(-0.775)">
    <g id="Group_110" data-name="Group 110" transform="translate(0.775 0)" opacity="0.58">
      <path id="Path_518" data-name="Path 518" d="M369.961,2749a9.849,9.849,0,1,0,9.849,9.849A9.86,9.86,0,0,0,369.961,2749Zm0,15.887a6.038,6.038,0,1,1,.93-12,3.161,3.161,0,1,0,4.478,3.291,6.025,6.025,0,0,1-5.408,8.705Z" transform="translate(-339.757 -2742.016)" fill="#fff"/>
      <path id="Path_519" data-name="Path 519" d="M330.363,2781.93a6.045,6.045,0,0,1-6.038-6.038h-3.812a9.849,9.849,0,0,0,19.7,0H336.4A6.045,6.045,0,0,1,330.363,2781.93Z" transform="translate(-320.513 -2755.083)" fill="#fff"/>
      <path id="Path_520" data-name="Path 520" d="M336.379,2737.478a9.844,9.844,0,1,0,3.809,8.254h.024v-10.323h-3.833Zm-6.016,13.818a6.038,6.038,0,1,1,.763-12.022,3.161,3.161,0,1,0,4.609,3.242,5.979,5.979,0,0,1,.644,2.323v.837A6.041,6.041,0,0,1,330.363,2751.3Z" transform="translate(-320.513 -2735.409)" fill="#fff"/>
    </g>
    <text id="لا_يوجد_عناصر" data-name="لا يوجد عناصر" transform="translate(21 40.862)" fill="#fff" font-size="7" font-family="Almarai-Bold, Almarai" font-weight="700" opacity="0.58"><tspan x="-19" y="0">لا يوجد عناصر</tspan></text>
  </g>
</svg>
