<svg xmlns="http://www.w3.org/2000/svg" width="14.323" height="15.755" viewBox="0 0 14.323 15.755">
  <g id="Icon" transform="translate(14.323) rotate(90)">
    <path id="Path" d="M10.907,1.3H.606A.63.63,0,0,1,0,.651.63.63,0,0,1,.606,0h10.3a.63.63,0,0,1,.606.651A.63.63,0,0,1,10.907,1.3Z" transform="translate(4.242 1.302)" fill="#fff"/>
    <path id="Path-2" data-name="Path" d="M2.424,1.3H.606A.63.63,0,0,1,0,.651.63.63,0,0,1,.606,0H2.424A.63.63,0,0,1,3.03.651.63.63,0,0,1,2.424,1.3Z" transform="translate(0 1.302)" fill="#fff"/>
    <path id="Path-3" data-name="Path" d="M10.907,1.3H.606A.63.63,0,0,1,0,.651.63.63,0,0,1,.606,0h10.3a.63.63,0,0,1,.606.651A.63.63,0,0,1,10.907,1.3Z" transform="translate(0 6.51)" fill="#fff"/>
    <path id="Path-4" data-name="Path" d="M4.848,1.3H.606A.63.63,0,0,1,0,.651.63.63,0,0,1,.606,0H4.848a.63.63,0,0,1,.606.651A.63.63,0,0,1,4.848,1.3Z" transform="translate(0 11.718)" fill="#fff"/>
    <path id="Shape" d="M0,1.953A1.889,1.889,0,0,1,1.818,0,1.889,1.889,0,0,1,3.636,1.953,1.889,1.889,0,0,1,1.818,3.906,1.889,1.889,0,0,1,0,1.953Z" transform="translate(1.818)" fill="#fff"/>
    <path id="Shape-2" data-name="Shape" d="M0,1.953A1.889,1.889,0,0,1,1.818,0,1.889,1.889,0,0,1,3.636,1.953,1.889,1.889,0,0,1,1.818,3.906,1.889,1.889,0,0,1,0,1.953Z" transform="translate(10.301 5.208)" fill="#fff"/>
    <path id="Shape-3" data-name="Shape" d="M0,1.953A1.889,1.889,0,0,1,1.818,0,1.889,1.889,0,0,1,3.636,1.953,1.889,1.889,0,0,1,1.818,3.906,1.889,1.889,0,0,1,0,1.953Z" transform="translate(4.242 10.416)" fill="#fff"/>
    <path id="Path-5" data-name="Path" d="M2.424,1.3H.606A.63.63,0,0,1,0,.651.63.63,0,0,1,.606,0H2.424A.63.63,0,0,1,3.03.651.63.63,0,0,1,2.424,1.3Z" transform="translate(12.725 6.51)" fill="#fff"/>
    <path id="Path-6" data-name="Path" d="M8.483,1.3H.606A.63.63,0,0,1,0,.651.63.63,0,0,1,.606,0H8.483a.63.63,0,0,1,.606.651A.63.63,0,0,1,8.483,1.3Z" transform="translate(6.666 11.718)" fill="#fff"/>
  </g>
</svg>
