<svg xmlns="http://www.w3.org/2000/svg" width="103.24" height="27.835" viewBox="0 0 103.24 27.835">
  <g id="Group_115" data-name="Group 115" transform="translate(-325.458 -2740.573)">
    <g id="Group_110" data-name="Group 110" transform="translate(325.458 2740.573)">
      <path id="Path_518" data-name="Path 518" d="M368.8,2749a8.689,8.689,0,1,0,8.689,8.689A8.7,8.7,0,0,0,368.8,2749Zm0,14.016a5.327,5.327,0,1,1,.821-10.583,2.788,2.788,0,1,0,3.95,2.9,5.315,5.315,0,0,1-4.771,7.68Z" transform="translate(-342.154 -2742.839)" fill="#fff"/>
      <path id="Path_519" data-name="Path 519" d="M329.2,2781.219a5.333,5.333,0,0,1-5.327-5.327h-3.363a8.69,8.69,0,0,0,17.379,0H334.53A5.333,5.333,0,0,1,329.2,2781.219Z" transform="translate(-320.513 -2757.533)" fill="#fff"/>
      <path id="Path_520" data-name="Path 520" d="M334.51,2737.234a8.685,8.685,0,1,0,3.36,7.281h.021v-9.107H334.51Zm-5.308,12.191a5.327,5.327,0,0,1,0-10.654,5.243,5.243,0,0,1,.673.048,2.789,2.789,0,1,0,4.066,2.86,5.279,5.279,0,0,1,.568,2.05v.739A5.329,5.329,0,0,1,329.2,2749.425Z" transform="translate(-320.513 -2735.409)" fill="#fff"/>
    </g>
    <g id="Group_114" data-name="Group 114" transform="translate(366.249 2740.573)">
      <g id="Group_112" data-name="Group 112" transform="translate(0 0)">
        <g id="Group_111" data-name="Group 111">
          <path id="Path_521" data-name="Path 521" d="M405.307,2766.794l.352-3.663a11.785,11.785,0,0,0,2.49.264c1.817,0,2.49-1.26,2.49-2.931v-13.741h4.073v13.741c0,3.663-1.758,6.8-6.563,6.8A11.151,11.151,0,0,1,405.307,2766.794Z" transform="translate(-405.307 -2745.785)" fill="#fff"/>
          <path id="Path_522" data-name="Path 522" d="M437.328,2758.482h3.838v13.683h-3.838V2770.2a5.418,5.418,0,0,1-4.512,2.315c-3.78,0-6.592-2.93-6.592-7.179s2.754-7.207,6.68-7.207a5.25,5.25,0,0,1,4.425,2.168Zm-.118,6.856a3.6,3.6,0,0,0-3.574-3.632,3.62,3.62,0,0,0,.03,7.237A3.608,3.608,0,0,0,437.21,2765.338Z" transform="translate(-414.941 -2751.04)" fill="#fff"/>
          <path id="Path_523" data-name="Path 523" d="M468.511,2744.984h3.838v21.125h-3.838v-1.7a5.474,5.474,0,0,1-4.394,2.051,7.211,7.211,0,0,1,0-14.386,5.37,5.37,0,0,1,4.394,2.022Zm-.117,14.27a3.607,3.607,0,0,0-3.545-3.6,3.57,3.57,0,0,0-3.545,3.6,3.546,3.546,0,1,0,7.09,0Z" transform="translate(-429.305 -2744.984)" fill="#fff"/>
          <path id="Path_524" data-name="Path 524" d="M497.43,2758.782h4.131l-8.438,20.393h-4.1l3.252-8-5.42-12.394h4.219l3.223,7.911Z" transform="translate(-442.869 -2751.339)" fill="#fff"/>
        </g>
      </g>
      <g id="Group_113" data-name="Group 113" transform="translate(57.897 2.424)">
        <path id="Path_525" data-name="Path 525" d="M514.385,2749.477v.412h-.637v1.9h-.466v-1.9h-.636v-.412Z" transform="translate(-512.646 -2749.477)" fill="#fff"/>
        <path id="Path_526" data-name="Path 526" d="M518.709,2751.785h-.476l-.167-1.43-.563,1.169h-.365l-.57-1.169-.167,1.43h-.476l.284-2.308h.4l.713,1.514.707-1.514h.4Z" transform="translate(-514.156 -2749.477)" fill="#fff"/>
      </g>
    </g>
  </g>
</svg>
