<svg xmlns="http://www.w3.org/2000/svg" width="19.055" height="19.054" viewBox="0 0 19.055 19.054">
  <g id="Group_361" data-name="Group 361" transform="translate(0 0)">
    <path id="Vector" d="M1048.223,300.339l-.664,2.476-2.424.051a9.539,9.539,0,0,1-.07-8.9h0l2.158.4.946,2.145a5.688,5.688,0,0,0,.053,3.828Z" transform="translate(-1043.999 -288.825)" fill="#fbbb00"/>
    <path id="Vector-2" data-name="Vector" d="M1058.771,295.472a9.518,9.518,0,0,1-3.4,9.209h0l-2.717-.139-.385-2.4a5.679,5.679,0,0,0,2.444-2.9h-5.095v-3.769h9.15Z" transform="translate(-1039.884 -287.725)" fill="#518ef8"/>
    <path id="Vector-3" data-name="Vector" d="M1059.01,303.089h0a9.53,9.53,0,0,1-14.356-2.915l3.087-2.527a5.666,5.666,0,0,0,8.165,2.9Z" transform="translate(-1043.52 -286.133)" fill="#28b446"/>
    <path id="Vector-4" data-name="Vector" d="M1059.157,293.193l-3.087,2.527a5.665,5.665,0,0,0-8.351,2.967l-3.1-2.541h0a9.529,9.529,0,0,1,14.542-2.952Z" transform="translate(-1043.549 -291)" fill="#f14336"/>
  </g>
</svg>
