<svg xmlns="http://www.w3.org/2000/svg" width="14.629" height="14.629" viewBox="0 0 14.629 14.629">
  <g id="grid" transform="translate(-2.25 -2.25)">
    <path id="Path_24993" data-name="Path 24993" d="M2.25,3.817A1.567,1.567,0,0,1,3.817,2.25H6.952A1.567,1.567,0,0,1,8.52,3.817V6.952A1.567,1.567,0,0,1,6.952,8.52H3.817A1.567,1.567,0,0,1,2.25,6.952Zm1.567-.522a.522.522,0,0,0-.522.522V6.952a.522.522,0,0,0,.522.522H6.952a.522.522,0,0,0,.522-.522V3.817a.522.522,0,0,0-.522-.522Zm6.792.522A1.567,1.567,0,0,1,12.177,2.25h3.135a1.567,1.567,0,0,1,1.567,1.567V6.952A1.567,1.567,0,0,1,15.312,8.52H12.177A1.567,1.567,0,0,1,10.61,6.952Zm1.567-.522a.522.522,0,0,0-.522.522V6.952a.522.522,0,0,0,.522.522h3.135a.522.522,0,0,0,.522-.522V3.817a.522.522,0,0,0-.522-.522ZM2.25,12.177A1.567,1.567,0,0,1,3.817,10.61H6.952A1.567,1.567,0,0,1,8.52,12.177v3.135a1.567,1.567,0,0,1-1.567,1.567H3.817A1.567,1.567,0,0,1,2.25,15.312Zm1.567-.522a.522.522,0,0,0-.522.522v3.135a.522.522,0,0,0,.522.522H6.952a.522.522,0,0,0,.522-.522V12.177a.522.522,0,0,0-.522-.522Zm6.792.522a1.567,1.567,0,0,1,1.567-1.567h3.135a1.567,1.567,0,0,1,1.567,1.567v3.135a1.567,1.567,0,0,1-1.567,1.567H12.177a1.567,1.567,0,0,1-1.567-1.567Zm1.567-.522a.522.522,0,0,0-.522.522v3.135a.522.522,0,0,0,.522.522h3.135a.522.522,0,0,0,.522-.522V12.177a.522.522,0,0,0-.522-.522Z" fill="#fff" fill-rule="evenodd"/>
  </g>
</svg>
