<svg xmlns="http://www.w3.org/2000/svg" width="115.394" height="35.199" viewBox="0 0 115.394 35.199">
  <g id="Group_115" data-name="Group 115" transform="translate(-320.513 -2735.409)">
    <g id="Group_110" data-name="Group 110" transform="translate(320.513 2735.409)">
      <path id="Path_518" data-name="Path 518" d="M371.135,2749a11.024,11.024,0,1,0,11.024,11.024A11.036,11.036,0,0,0,371.135,2749Zm0,17.781a6.758,6.758,0,1,1,1.041-13.427,3.538,3.538,0,1,0,5.012,3.683,6.743,6.743,0,0,1-6.053,9.744Z" transform="translate(-337.329 -2741.182)" fill="#ff6701"/>
      <path id="Path_519" data-name="Path 519" d="M331.537,2782.65a6.766,6.766,0,0,1-6.758-6.758h-4.267a11.024,11.024,0,0,0,22.048,0H338.3A6.766,6.766,0,0,1,331.537,2782.65Z" transform="translate(-320.513 -2752.601)" fill="#ff6701"/>
      <path id="Path_520" data-name="Path 520" d="M338.271,2737.725a11.018,11.018,0,1,0,4.263,9.238h.027v-11.553h-4.29Zm-6.734,15.466a6.758,6.758,0,1,1,.854-13.455,3.538,3.538,0,1,0,5.158,3.628,6.7,6.7,0,0,1,.721,2.6v.937A6.761,6.761,0,0,1,331.537,2753.191Z" transform="translate(-320.513 -2735.409)" fill="#ff6701"/>
    </g>
    <g id="Group_114" data-name="Group 114" transform="translate(369.297 2740.917)">
      <g id="Group_112" data-name="Group 112" transform="translate(0 0)">
        <g id="Group_111" data-name="Group 111">
          <path id="Path_521" data-name="Path 521" d="M405.307,2768.131l.375-3.907a12.57,12.57,0,0,0,2.656.282c1.938,0,2.656-1.344,2.656-3.126v-14.657h4.344v14.657c0,3.907-1.875,7.251-7,7.251A11.892,11.892,0,0,1,405.307,2768.131Z" transform="translate(-405.307 -2745.722)" fill="#fff"/>
          <path id="Path_522" data-name="Path 522" d="M438.068,2758.505h4.094V2773.1h-4.094v-2.094a5.78,5.78,0,0,1-4.813,2.469c-4.032,0-7.032-3.125-7.032-7.657s2.938-7.687,7.125-7.687a5.6,5.6,0,0,1,4.72,2.312Zm-.125,7.313a3.841,3.841,0,0,0-3.813-3.875,3.862,3.862,0,0,0,.032,7.719A3.849,3.849,0,0,0,437.942,2765.818Z" transform="translate(-414.19 -2750.567)" fill="#fff"/>
          <path id="Path_523" data-name="Path 523" d="M469.251,2744.984h4.094v22.533h-4.094V2765.7a5.839,5.839,0,0,1-4.687,2.188c-3.75,0-7.158-3-7.158-7.688s3.407-7.657,7.158-7.657a5.729,5.729,0,0,1,4.687,2.156Zm-.125,15.221a3.847,3.847,0,0,0-3.782-3.844,3.808,3.808,0,0,0-3.781,3.844,3.782,3.782,0,1,0,7.563,0Z" transform="translate(-427.432 -2744.984)" fill="#fff"/>
          <path id="Path_524" data-name="Path 524" d="M498.135,2758.782h4.406l-9,21.752h-4.376l3.469-8.532-5.781-13.22h4.5l3.438,8.438Z" transform="translate(-439.938 -2750.843)" fill="#fff"/>
        </g>
      </g>
      <g id="Group_113" data-name="Group 113" transform="translate(61.755 2.585)">
        <path id="Path_525" data-name="Path 525" d="M514.5,2749.477v.439h-.679v2.022h-.5v-2.022h-.679v-.439Z" transform="translate(-512.646 -2749.477)" fill="#fff"/>
        <path id="Path_526" data-name="Path 526" d="M518.894,2751.938h-.508l-.178-1.525-.6,1.247h-.389l-.608-1.247-.178,1.525h-.507l.3-2.461h.422l.761,1.615.754-1.615h.429Z" transform="translate(-514.039 -2749.477)" fill="#fff"/>
      </g>
    </g>
  </g>
</svg>
