<svg xmlns="http://www.w3.org/2000/svg" width="13.666" height="11.388" viewBox="0 0 13.666 11.388">
  <g id="list" transform="translate(-2.876 -4.768)">
    <path id="Path_24994" data-name="Path 24994" d="M5.231,6.731H7.509V9.009H5.231Zm5.694,0a1.139,1.139,0,0,0,0,2.278h6.833a1.139,1.139,0,0,0,0-2.278ZM7.509,11.286H5.231v2.278H7.509Zm2.278,1.139a1.139,1.139,0,0,1,1.139-1.139h6.833a1.139,1.139,0,0,1,0,2.278H10.925A1.139,1.139,0,0,1,9.786,12.425ZM7.509,15.842H5.231v2.278H7.509ZM9.786,16.98a1.139,1.139,0,0,1,1.139-1.139h6.833a1.139,1.139,0,0,1,0,2.278H10.925A1.139,1.139,0,0,1,9.786,16.98Z" transform="translate(-2.355 -1.963)" fill="#c4c4c4" fill-rule="evenodd"/>
  </g>
</svg>
