<svg xmlns="http://www.w3.org/2000/svg" width="139.539" height="146.153" viewBox="0 0 139.539 146.153">
  <g id="Group_37441" data-name="Group 37441" transform="translate(-102.66 -171.577)">
    <g id="Group_37439" data-name="Group 37439" transform="translate(102.66 178.19)">
      <g id="Group_615" data-name="Group 615">
        <g id="Group_614" data-name="Group 614">
          <g id="Group_613" data-name="Group 613">
            <g id="Group_606" data-name="Group 606">
              <g id="Group_605" data-name="Group 605">
                <g id="Group_604" data-name="Group 604">
                  <circle id="Ellipse_1" data-name="Ellipse 1" cx="69.769" cy="69.769" r="69.769" fill="#0232eb"/>
                </g>
              </g>
            </g>
            <g id="Group_608" data-name="Group 608" transform="translate(2.817 3.066)">
              <g id="Group_607" data-name="Group 607">
                <path id="Path_467" data-name="Path 467" d="M798.4,3581.456a1.414,1.414,0,0,1-1.409-1.409,67.075,67.075,0,0,1,55.41-65.959,1.429,1.429,0,0,1,1.635,1.149,1.386,1.386,0,0,1-.24,1.05,1.366,1.366,0,0,1-.909.578,64,64,0,0,0-53.077,63.183A1.409,1.409,0,0,1,798.4,3581.456Zm59.828-65.3a1.426,1.426,0,1,1,.127-.007A.789.789,0,0,1,858.227,3516.16Z" transform="translate(-796.99 -3513.344)" fill="rgba(255,255,255,0.34)"/>
              </g>
            </g>
            <g id="Group_610" data-name="Group 610" transform="translate(17.037 17.037)">
              <g id="Group_609" data-name="Group 609">
                <path id="Path_468" data-name="Path 468" d="M915.587,3533.169a69.77,69.77,0,0,1-98.418,98.418,69.77,69.77,0,1,0,98.418-98.418Z" transform="translate(-817.169 -3533.169)" fill="#fff" opacity="0.33"/>
              </g>
            </g>
            <g id="Group_612" data-name="Group 612" transform="translate(18.708 18.708)">
              <g id="Group_611" data-name="Group 611">
                <path id="Path_469" data-name="Path 469" d="M918.14,3535.541a69.764,69.764,0,0,1-98.6,98.6,69.765,69.765,0,1,0,98.6-98.6Z" transform="translate(-819.541 -3535.541)" fill="#2266d3"/>
              </g>
            </g>
          </g>
        </g>
      </g>
      <g id="Group_628" data-name="Group 628" transform="translate(24.461 34.976)">
        <g id="Group_617" data-name="Group 617" transform="translate(32.739 48.08)">
          <g id="Group_616" data-name="Group 616">
            <path id="Path_470" data-name="Path 470" d="M882.946,3634.44a12.367,12.367,0,1,0,12.366,12.367A12.381,12.381,0,0,0,882.946,3634.44Z" transform="translate(-870.58 -3634.44)" fill="#f8f8f8"/>
          </g>
        </g>
        <g id="Group_619" data-name="Group 619" transform="translate(33.934 49.276)">
          <g id="Group_618" data-name="Group 618">
            <path id="Path_471" data-name="Path 471" d="M889.09,3636.478a12.364,12.364,0,0,1-16.473,16.473,12.366,12.366,0,1,0,16.473-16.473Z" transform="translate(-872.617 -3636.478)" fill="#dedede" stroke="rgba(0,0,0,0)" stroke-width="1"/>
          </g>
        </g>
        <g id="Group_621" data-name="Group 621" transform="translate(17.213 24.401)">
          <g id="Group_620" data-name="Group 620">
            <path id="Path_472" data-name="Path 472" d="M899.027,3604.563a39.544,39.544,0,0,0-53.62,0,4.009,4.009,0,0,0-1.284,2.938,4.081,4.081,0,0,0,1.306,2.993l4.234,3.915a4,4,0,0,0,2.726,1.069,4.083,4.083,0,0,0,2.716-1.04,25.714,25.714,0,0,1,34.225,0,4.04,4.04,0,0,0,5.443-.029l4.233-3.915a4.078,4.078,0,0,0,1.306-2.992A4.008,4.008,0,0,0,899.027,3604.563Z" transform="translate(-844.122 -3594.087)" fill="#f8f8f8"/>
          </g>
        </g>
        <g id="Group_623" data-name="Group 623" transform="translate(17.213 32.362)">
          <g id="Group_622" data-name="Group 622">
            <path id="Path_473" data-name="Path 473" d="M899.05,3610.19l-.044.041-4.233,3.915a4.04,4.04,0,0,1-5.443.029,25.715,25.715,0,0,0-34.225,0,4.082,4.082,0,0,1-2.716,1.041,4,4,0,0,1-2.726-1.069l-4.234-3.915-.043-.041a4.006,4.006,0,0,0-1.262,2.916,4.082,4.082,0,0,0,1.306,2.993l4.234,3.915a4,4,0,0,0,2.726,1.069,4.083,4.083,0,0,0,2.716-1.04,25.713,25.713,0,0,1,34.225,0,4.04,4.04,0,0,0,5.443-.029l4.233-3.915a4.08,4.08,0,0,0,1.306-2.993A4.009,4.009,0,0,0,899.05,3610.19Z" transform="translate(-844.122 -3607.654)" fill="#dedede" stroke="rgba(0,0,0,0)" stroke-width="1"/>
          </g>
        </g>
        <g id="Group_625" data-name="Group 625">
          <g id="Group_624" data-name="Group 624">
            <path id="Path_474" data-name="Path 474" d="M904.13,3570.093a63.916,63.916,0,0,0-88.068,0,4.114,4.114,0,0,0-1.275,2.961,4,4,0,0,0,1.246,2.922l4.153,3.972a4.014,4.014,0,0,0,5.536.042,50.089,50.089,0,0,1,68.746,0,3.969,3.969,0,0,0,2.735,1.086,4.043,4.043,0,0,0,2.8-1.128l4.154-3.972a4,4,0,0,0,1.245-2.922A4.113,4.113,0,0,0,904.13,3570.093Z" transform="translate(-814.788 -3552.505)" fill="#f8f8f8"/>
          </g>
        </g>
        <g id="Group_627" data-name="Group 627" transform="translate(0 7.961)">
          <g id="Group_626" data-name="Group 626">
            <path id="Path_475" data-name="Path 475" d="M904.152,3575.72l-4.147,3.965a4.043,4.043,0,0,1-2.8,1.128,3.969,3.969,0,0,1-2.735-1.086,50.089,50.089,0,0,0-68.746,0,4.014,4.014,0,0,1-5.536-.042l-4.147-3.965a4.115,4.115,0,0,0-1.252,2.939,4,4,0,0,0,1.246,2.922l4.153,3.972a4.014,4.014,0,0,0,5.536.042,50.089,50.089,0,0,1,68.746,0,3.968,3.968,0,0,0,2.735,1.086,4.045,4.045,0,0,0,2.8-1.128l4.154-3.972a4,4,0,0,0,1.245-2.922A4.115,4.115,0,0,0,904.152,3575.72Z" transform="translate(-814.788 -3566.072)" fill="#dedede"/>
          </g>
        </g>
      </g>
    </g>
    <g id="Group_37440" data-name="Group 37440" transform="translate(194.458 171.577)">
      <g id="Group_2435" data-name="Group 2435">
        <g id="Group_2434" data-name="Group 2434" transform="translate(0 0)">
          <g id="Group_2433" data-name="Group 2433">
            <g id="Group_2426" data-name="Group 2426">
              <g id="Group_2425" data-name="Group 2425">
                <g id="Group_2424" data-name="Group 2424">
                  <circle id="Ellipse_32" data-name="Ellipse 32" cx="19.15" cy="19.15" r="19.15" fill="#ff6701"/>
                </g>
              </g>
            </g>
            <g id="Group_2428" data-name="Group 2428" transform="translate(0.773 0.841)">
              <g id="Group_2427" data-name="Group 2427">
                <path id="Path_1015" data-name="Path 1015" d="M797.377,3868.038a.388.388,0,0,1-.387-.387,18.41,18.41,0,0,1,15.209-18.1.392.392,0,0,1,.449.315.386.386,0,0,1-.315.447,17.567,17.567,0,0,0-14.568,17.342A.387.387,0,0,1,797.377,3868.038Zm16.421-17.922a.387.387,0,0,1-.033-.772h0a.386.386,0,0,1,.064.77A.209.209,0,0,1,813.8,3850.115Z" transform="translate(-796.99 -3849.342)" fill="#e8566f"/>
              </g>
            </g>
            <g id="Group_2430" data-name="Group 2430" transform="translate(4.676 4.676)">
              <g id="Group_2429" data-name="Group 2429">
                <path id="Path_1016" data-name="Path 1016" d="M844.182,3869.169a19.15,19.15,0,0,1-27.013,27.013,19.15,19.15,0,1,0,27.013-27.013Z" transform="translate(-817.169 -3869.169)" fill="#d10028"/>
              </g>
            </g>
            <g id="Group_2432" data-name="Group 2432" transform="translate(5.135 5.135)">
              <g id="Group_2431" data-name="Group 2431">
                <path id="Path_1017" data-name="Path 1017" d="M846.6,3871.541a19.149,19.149,0,0,1-27.063,27.063,19.149,19.149,0,1,0,27.063-27.063Z" transform="translate(-819.541 -3871.541)" fill="#aa1c60"/>
              </g>
            </g>
          </g>
        </g>
      </g>
      <g id="Group_2442" data-name="Group 2442" transform="translate(15.714 5.643)">
        <g id="Group_2437" data-name="Group 2437" transform="translate(0)">
          <g id="Group_2436" data-name="Group 2436">
            <path id="Path_1018" data-name="Path 1018" d="M877.672,3874.167a3.44,3.44,0,0,0-3.436,3.436v10.271a3.436,3.436,0,0,0,6.872,0V3877.6A3.44,3.44,0,0,0,877.672,3874.167Z" transform="translate(-874.236 -3874.167)" fill="#fff"/>
          </g>
        </g>
        <g id="Group_2439" data-name="Group 2439" transform="translate(0 20.142)">
          <g id="Group_2438" data-name="Group 2438">
            <circle id="Ellipse_33" data-name="Ellipse 33" cx="3.436" cy="3.436" r="3.436" fill="#fff"/>
          </g>
        </g>
        <g id="Group_2441" data-name="Group 2441" transform="translate(0.24 20.382)">
          <g id="Group_2440" data-name="Group 2440">
            <path id="Path_1019" data-name="Path 1019" d="M879.935,3979.546a3.436,3.436,0,0,1-4.458,4.458,3.436,3.436,0,1,0,4.458-4.458Z" transform="translate(-875.477 -3979.546)" fill="#fff"/>
          </g>
        </g>
      </g>
      <g id="Group_2444" data-name="Group 2444" transform="translate(15.954 5.883)">
        <g id="Group_2443" data-name="Group 2443" transform="translate(0 0)">
          <path id="Path_1020" data-name="Path 1020" d="M879.935,3875.408a3.419,3.419,0,0,1,.24,1.261v10.271a3.436,3.436,0,0,1-4.7,3.2,3.436,3.436,0,0,0,6.632-1.261V3878.6A3.442,3.442,0,0,0,879.935,3875.408Z" transform="translate(-875.477 -3875.408)" fill="#dedede"/>
        </g>
      </g>
    </g>
  </g>
</svg>
