<svg xmlns="http://www.w3.org/2000/svg" width="17.768" height="19.757" viewBox="0 0 17.768 19.757">
  <path id="notification" d="M20.44,13.941l-1.793-1.793V9.093a6.687,6.687,0,0,0-5.976-6.64V1.125H11.342V2.453a6.74,6.74,0,0,0-5.976,6.64v3.055L3.573,13.941a.6.6,0,0,0-.2.465V16.4a.624.624,0,0,0,.664.664H8.686a3.32,3.32,0,0,0,6.64,0h4.648a.624.624,0,0,0,.664-.664V14.406A.6.6,0,0,0,20.44,13.941Zm-8.434,5.113a1.992,1.992,0,0,1-1.992-1.992H14A1.992,1.992,0,0,1,12.006,19.054Zm7.3-3.32H4.7V14.671L6.5,12.878a.6.6,0,0,0,.2-.465V9.093a5.312,5.312,0,1,1,10.625,0v3.32a.6.6,0,0,0,.2.465l1.793,1.793Z" transform="translate(-3.122 -0.875)" fill="#fff" stroke="#fff" stroke-linecap="square" stroke-width="0.5"/>
</svg>
