<svg id="caravan-line" xmlns="http://www.w3.org/2000/svg" width="18.771" height="14.079" viewBox="0 0 18.771 14.079">
  <path id="Path_27701" data-name="Path 27701" d="M11.64,21A2.64,2.64,0,1,1,9,23.64,2.629,2.629,0,0,1,11.64,21Zm0,4.106a1.467,1.467,0,1,0-1.467-1.467A1.452,1.452,0,0,0,11.64,25.106Z" transform="translate(0.386 -12.201)"/>
  <path id="Path_27702" data-name="Path 27702" d="M2.587,16.559H3.76v-4.4a1.655,1.655,0,0,1,.235-.88l2.464-4.4A1.639,1.639,0,0,1,7.983,6H19.012a1.728,1.728,0,0,1,1.76,1.76v8.213a1.728,1.728,0,0,1-1.76,1.76H17.838V16.559h1.173a.554.554,0,0,0,.587-.587V7.76a.554.554,0,0,0-.587-.587H7.983a.616.616,0,0,0-.528.293l-2.464,4.4a.44.44,0,0,0-.059.293v4.4H7.279V9.52h4.106v4.693H10.213v-3.52H8.453v5.866h1.76v1.173H2.587a.587.587,0,0,1,0-1.173Z" transform="translate(-2 -6)"/>
  <path id="Path_27703" data-name="Path 27703" d="M7,12h5.279v3.52H7Zm1.173,2.346h2.933V13.173H8.173Z" transform="translate(3.559 -8.48)"/>
</svg>
