<svg xmlns="http://www.w3.org/2000/svg" xmlns:xlink="http://www.w3.org/1999/xlink" width="204.194" height="85.884" viewBox="0 0 204.194 85.884">
  <defs>
    <clipPath id="clip-path">
      <path id="Path_24990" data-name="Path 24990" d="M386.934,1061.99l-26.618-25.343a9.125,9.125,0,0,1-2.784-5.6l-4.2-37.291a2.857,2.857,0,0,1,2.56-3.161l13.684-1.359a187.265,187.265,0,0,1,36.929,0l13.684,1.359a2.849,2.849,0,0,1,2.557,3.161l-4.2,37.291a9.168,9.168,0,0,1-2.784,5.6l-26.618,25.343A1.6,1.6,0,0,1,386.934,1061.99Z" transform="translate(-353.314 -988.32)" fill="none"/>
    </clipPath>
    <linearGradient id="linear-gradient" x1="-0.893" y1="0.978" x2="2.411" y2="-0.156" gradientUnits="objectBoundingBox">
      <stop offset="0" stop-color="#fff"/>
      <stop offset="1" stop-color="#fff"/>
    </linearGradient>
  </defs>
  <g id="Group_37381" data-name="Group 37381" transform="translate(-312.417 -943.486)">
    <rect id="Rectangle_5627" data-name="Rectangle 5627" width="105.082" height="35.174" transform="translate(411.529 980.893)" fill="#ededed"/>
    <line id="Line_74" data-name="Line 74" x2="100.881" transform="translate(413.627 1018.254)" fill="none" stroke="#d4d4d4" stroke-linecap="square" stroke-width="3"/>
    <line id="Line_75" data-name="Line 75" y2="11.69" transform="translate(431.1 993.869)" fill="none" stroke="#666" stroke-linecap="square" stroke-width="3"/>
    <line id="Line_76" data-name="Line 76" x1="9.988" y2="6.068" transform="translate(426.106 996.68)" fill="none" stroke="#666" stroke-linecap="square" stroke-width="3"/>
    <line id="Line_77" data-name="Line 77" x2="9.988" y2="6.068" transform="translate(426.106 996.68)" fill="none" stroke="#666" stroke-linecap="square" stroke-width="3"/>
    <line id="Line_78" data-name="Line 78" y2="11.69" transform="translate(452.798 993.869)" fill="none" stroke="#666" stroke-linecap="square" stroke-width="3"/>
    <line id="Line_79" data-name="Line 79" x1="9.988" y2="6.068" transform="translate(447.803 996.68)" fill="none" stroke="#666" stroke-linecap="square" stroke-width="3"/>
    <line id="Line_80" data-name="Line 80" x2="9.988" y2="6.068" transform="translate(447.803 996.68)" fill="none" stroke="#666" stroke-linecap="square" stroke-width="3"/>
    <line id="Line_81" data-name="Line 81" y2="11.69" transform="translate(474.495 993.869)" fill="none" stroke="#666" stroke-linecap="square" stroke-width="3"/>
    <line id="Line_82" data-name="Line 82" x1="9.988" y2="6.068" transform="translate(469.501 996.68)" fill="none" stroke="#666" stroke-linecap="square" stroke-width="3"/>
    <line id="Line_83" data-name="Line 83" x2="9.988" y2="6.068" transform="translate(469.501 996.68)" fill="none" stroke="#666" stroke-linecap="square" stroke-width="3"/>
    <line id="Line_84" data-name="Line 84" y2="11.69" transform="translate(496.192 993.869)" fill="none" stroke="#666" stroke-linecap="square" stroke-width="3"/>
    <line id="Line_85" data-name="Line 85" x1="9.988" y2="6.068" transform="translate(491.198 996.68)" fill="none" stroke="#666" stroke-linecap="square" stroke-width="3"/>
    <line id="Line_86" data-name="Line 86" x2="9.988" y2="6.068" transform="translate(491.198 996.68)" fill="none" stroke="#666" stroke-linecap="square" stroke-width="3"/>
    <line id="Line_87" data-name="Line 87" x2="69.589" transform="translate(414.593 964.891)" fill="none" stroke="#d4d4d4" stroke-linecap="square" stroke-width="3"/>
    <line id="Line_88" data-name="Line 88" x2="45.027" transform="translate(414.593 954.121)" fill="none" stroke="#d4d4d4" stroke-linecap="square" stroke-width="3"/>
    <line id="Line_89" data-name="Line 89" x2="55.257" transform="translate(449.39 954.121)" fill="none" stroke="#d4d4d4" stroke-linecap="square" stroke-width="3"/>
    <path id="Path_24988" data-name="Path 24988" d="M384.3,1061.041a3.924,3.924,0,0,1-2.718-1.086l-26.649-25.378a11.382,11.382,0,0,1-3.465-6.961l-4.2-37.349a5.19,5.19,0,0,1,4.651-5.753l13.707-1.34c6.188-.616,12.479-.924,18.694-.924s12.51.308,18.7.924l13.684,1.355a5.2,5.2,0,0,1,4.651,5.752l-4.2,37.349a11.354,11.354,0,0,1-3.465,6.961l-26.649,25.378A3.929,3.929,0,0,1,384.3,1061.041Z" transform="translate(-31.352 -35.218)" fill="#0232eb"/>
    <path id="Path_24989" data-name="Path 24989" d="M378.766,978.923q9.241,0,18.482.913l13.669,1.359a2.849,2.849,0,0,1,2.557,3.161l-4.2,37.349a9.014,9.014,0,0,1-2.745,5.529l-26.649,25.374a1.594,1.594,0,0,1-2.214,0l-26.649-25.374a9.018,9.018,0,0,1-2.749-5.529l-4.2-37.349a2.857,2.857,0,0,1,2.56-3.161l13.684-1.359q9.206-.913,18.463-.913m0-5.883c-6.476,0-13.026.323-19.472.963L345.214,975.4a7.763,7.763,0,0,0-6.931,8.586l4.328,38.412a14.124,14.124,0,0,0,4.289,8.636l27.419,26.11a6.472,6.472,0,0,0,8.921,0l27.419-26.11a14.123,14.123,0,0,0,4.289-8.637l4.324-38.412a7.755,7.755,0,0,0-6.931-8.586L398.261,974c-6.446-.639-13-.963-19.475-.963Z" transform="translate(-25.818 -29.554)" fill="#fff"/>
    <g id="Group_37380" data-name="Group 37380" transform="translate(318.223 949.37)" clip-path="url(#clip-path)">
      <g id="Group_37379" data-name="Group 37379" transform="translate(-3.254 -18.228)" opacity="0.8">
        <g id="Group_37378" data-name="Group 37378">
          <rect id="Rectangle_5628" data-name="Rectangle 5628" width="29.259" height="91.725" transform="translate(63.441 0) rotate(43.76)" opacity="0.45" fill="url(#linear-gradient)"/>
        </g>
      </g>
    </g>
    <path id="Path_520" data-name="Path 520" d="M343.527,2738.41a14.28,14.28,0,1,0,5.525,11.972h.035v-14.974h-5.56Zm-8.727,20.044a8.759,8.759,0,1,1,1.107-17.438,4.586,4.586,0,1,0,6.685,4.7,8.678,8.678,0,0,1,.934,3.371v1.214A8.763,8.763,0,0,1,334.8,2758.454Z" transform="translate(18.148 -1767.304)" fill="#fff"/>
  </g>
</svg>
