<svg xmlns="http://www.w3.org/2000/svg" width="14.93" height="14.93" viewBox="0 0 14.93 14.93">
  <path id="messenger" d="M7.465,0A7.466,7.466,0,0,0,.99,11.181L.028,14.168a.583.583,0,0,0,.734.734l2.987-.962A7.465,7.465,0,1,0,7.465,0Zm0,13.763a6.28,6.28,0,0,1-3.334-.954.584.584,0,0,0-.488-.061l-2.156.694.694-2.156a.584.584,0,0,0-.061-.488,6.3,6.3,0,1,1,5.344,2.965Zm.729-6.3a.729.729,0,1,1-.729-.729A.729.729,0,0,1,8.194,7.465Zm2.916,0a.729.729,0,1,1-.729-.729A.729.729,0,0,1,11.11,7.465Zm-5.832,0a.729.729,0,1,1-.729-.729A.729.729,0,0,1,5.278,7.465Zm0,0" fill="#ff6701"/>
</svg>
