<svg id="mail" xmlns="http://www.w3.org/2000/svg" width="17.836" height="11.891" viewBox="0 0 17.836 11.891">
  <g id="Group_949" data-name="Group 949">
    <path id="Path_1283" data-name="Path 1283" d="M16.921,85.333H.915A.917.917,0,0,0,0,86.248V96.309a.917.917,0,0,0,.915.915H16.921a.917.917,0,0,0,.915-.915V86.248A.917.917,0,0,0,16.921,85.333Zm-.343.686L9.444,91.37a.956.956,0,0,1-1.052,0L1.258,86.019Zm-3.811,5.7,3.887,4.8.013.013H1.168l.013-.013,3.887-4.8a.343.343,0,0,0-.533-.432L.686,96.046v-9.6L7.98,91.919a1.637,1.637,0,0,0,1.875,0l7.294-5.471v9.6L13.3,91.291a.343.343,0,0,0-.533.432Z" transform="translate(0 -85.333)" fill="#ff6701"/>
  </g>
</svg>
