<svg xmlns="http://www.w3.org/2000/svg" width="14.401" height="14.402" viewBox="0 0 14.401 14.402">
  <path id="Path_21706" data-name="Path 21706" d="M2240.8,6439.679l-2.271-1.31a1.5,1.5,0,0,0-2.033.544,1.024,1.024,0,0,1-.642.528.922.922,0,0,1-.777-.175,14.783,14.783,0,0,1-2.582-2.581.925.925,0,0,1-.174-.777,1.027,1.027,0,0,1,.527-.642,1.5,1.5,0,0,0,.545-2.033l-1.31-2.271a1.486,1.486,0,0,0-1.834-.641l-.027.011a7.851,7.851,0,0,0-2.2,1.076,3.024,3.024,0,0,0-.874,2.074,5.822,5.822,0,0,0,.487,2.4,17.187,17.187,0,0,0,8.242,8.242,6.018,6.018,0,0,0,2.229.491q.088,0,.174,0a3.018,3.018,0,0,0,2.073-.872,7.86,7.86,0,0,0,1.077-2.2l.01-.027a1.486,1.486,0,0,0-.641-1.834Zm-.406,1.423-.012.027a10.718,10.718,0,0,1-.824,1.815c-.857.857-2.245.548-3.259.138a16.093,16.093,0,0,1-7.62-7.62c-.41-1.014-.719-2.4.137-3.259a10.763,10.763,0,0,1,1.816-.826l.028-.011a.37.37,0,0,1,.137-.026.357.357,0,0,1,.311.183l1.311,2.271a.366.366,0,0,1-.133.5,2.114,2.114,0,0,0-1.066,1.39,2.044,2.044,0,0,0,.376,1.678,15.843,15.843,0,0,0,2.806,2.806,2.045,2.045,0,0,0,1.678.376,2.116,2.116,0,0,0,1.39-1.067.366.366,0,0,1,.5-.132l2.27,1.31A.359.359,0,0,1,2240.393,6441.1Z" transform="translate(-2227.143 -6430.217)" fill="#ff6701"/>
</svg>
