<svg xmlns="http://www.w3.org/2000/svg" xmlns:xlink="http://www.w3.org/1999/xlink" width="65" height="65" viewBox="0 0 65 65">
  <defs>
    <clipPath id="clip-path">
      <rect id="Icon_-_Image_Background_Mask_" data-name="Icon - Image (Background/Mask)" width="65" height="65" transform="translate(0 0)" fill="rgba(0,0,0,0)"/>
    </clipPath>
  </defs>
  <g id="Icon_-_Image" data-name="Icon - Image" transform="translate(-0.272)" opacity="0.36">
    <rect id="Icon_-_Image_Background_Mask_2" data-name="Icon - Image (Background/Mask)" width="65" height="65" transform="translate(0.272 0)" fill="rgba(0,0,0,0)"/>
    <g id="Icon_-_Image-2" data-name="Icon - Image" transform="translate(0.272)" clip-path="url(#clip-path)">
      <path id="Vector_3" data-name="Vector 3" d="M52.255,13.041c0,.625-.027,1.255-.082,1.879-.763,8.594-6.733,14.21-15.347,14.21H13.275A14.96,14.96,0,0,1,2.59,25.148,12.493,12.493,0,0,1,0,21.8C.9,20.7,1.908,19.5,2.889,18.3c1.663-1.991,3.271-3.957,4.28-5.237,1.5-1.855,5.452-6.737,10.931-4.446a19.561,19.561,0,0,1,3,1.691c2.208,1.473,3.135,1.909,4.689,1.064,1.717-.927,2.835-2.755,4.007-4.664.627-1.012,1.254-1.991,1.935-2.891C34.7-.051,39.28-1.087,43.1,1.2a28.685,28.685,0,0,1,5.07,4.061c.327.327.654.63.954.93.409.409,1.772,1.773,3.135,3.082Z" transform="translate(7.328 30.72)" fill="#747474"/>
      <path id="Vector_2" data-name="Vector 2" d="M15.428,0C6.188,0,0,6.464,0,16.089V38.32a17.507,17.507,0,0,0,2.153,8.755c.9-1.094,1.908-2.291,2.889-3.494,1.663-1.988,3.271-3.955,4.28-5.234,1.5-1.855,5.452-6.737,10.931-4.446a19.561,19.561,0,0,1,3,1.691c2.208,1.473,3.135,1.909,4.689,1.061,1.717-.925,2.835-2.752,4.007-4.664C32.574,30.98,33.2,30,33.883,29.1c2.971-3.873,7.551-4.909,11.367-2.618a28.685,28.685,0,0,1,5.07,4.061c.327.327.654.63.954.93.409.406,1.772,1.77,3.135,3.082V16.089C54.409,6.464,48.221,0,39.007,0Z" transform="translate(5.175 5.441)" fill="#dcdaff"/>
      <path id="Vector_1" data-name="Vector 1" d="M7.019,14.046A7.084,7.084,0,0,1,0,7.023,7.085,7.085,0,0,1,7.019,0a7.086,7.086,0,0,1,7.022,7.023A7.084,7.084,0,0,1,7.019,14.046Z" transform="translate(16.854 16.908)" fill="#747474"/>
    </g>
  </g>
</svg>
