<svg xmlns="http://www.w3.org/2000/svg" width="22.459" height="16.844" viewBox="0 0 22.459 16.844">
  <path id="Path_27700" data-name="Path 27700" d="M18.284,12.421h-.177a7.149,7.149,0,0,0,.14-1.4,7.021,7.021,0,0,0-14.041-.072l.011.142a4.93,4.93,0,0,0-.007,9.756H7.72a.7.7,0,0,0,0-1.4l-3.407.007A3.559,3.559,0,0,1,1.4,15.931a3.513,3.513,0,0,1,3.012-3.453l.6-.087a.7.7,0,0,0,.6-.695l-.011-.747a5.617,5.617,0,1,1,11.119,1.2l-.185.893a.7.7,0,0,0,.174.62.684.684,0,0,0,.606.216,8.4,8.4,0,0,1,.96-.059,2.808,2.808,0,0,1-.036,5.616H13.335c-1.965,0-2.1-1.178-2.106-1.4V13.379l1.661,1.659a.7.7,0,1,0,.992-.992l-2.824-2.823a.7.7,0,0,0-.5-.2c-.011,0-.02-.006-.031-.006a.693.693,0,0,0-.508.223L7.192,14.06a.7.7,0,1,0,.992.992l1.641-1.64v4.624c0,.97.733,2.807,3.509,2.807h4.913a4.212,4.212,0,0,0,.036-8.424Z" transform="translate(0 -4)" fill="#747474"/>
</svg>
