<svg id="Group_167" data-name="Group 167" xmlns="http://www.w3.org/2000/svg" width="31.667" height="9.909" viewBox="0 0 31.667 9.909">
  <g id="Group">
    <g id="Group-2" data-name="Group" transform="translate(2.958)">
      <g id="Group-3" data-name="Group">
        <path id="Vector" d="M12.526,9.4l.356-2.149.334.152a5.155,5.155,0,0,0,2.383.511c.726,0,1.515-.293,1.527-.937,0-.422-.333-.721-1.318-1.194-.967-.459-2.248-1.23-2.227-2.6C13.593,1.316,15.355.013,17.869.013A6.4,6.4,0,0,1,20.148.42L19.8,2.49l-.23-.1A4.45,4.45,0,0,0,17.8,2.019c-.04,0-.078,0-.117,0-1,0-1.454.415-1.466.825,0,.443.542.743,1.433,1.182,1.464.683,2.143,1.512,2.134,2.609-.023,1.988-1.759,3.272-4.423,3.272A7.937,7.937,0,0,1,12.526,9.4Zm16.181.5H26.358l-.382-1.97H22.994L22.259,9.89H19.594L23.368.827a1.246,1.246,0,0,1,1.327-.8H26.66L28.708,9.9v0ZM23.733,5.947h1.8l-.772-3.2C24.462,3.712,23.777,5.947,23.733,5.947ZM8.4,9.89,9.985,0h2.541L10.937,9.888v0ZM2.281,9.88,0,1.378A7.38,7.38,0,0,1,3.514,5.394l.27,1.326L6.274,0V0H8.962l-4,9.878Z" fill="#0232eb"/>
      </g>
    </g>
    <path id="Vector-2" data-name="Vector" d="M6536.11,248.775a1.66,1.66,0,0,0-1.653-1.273h-3.941l-.041.183a9.673,9.673,0,0,1,6.493,5.284Z" transform="translate(-6530.475 -247.5)" fill="#efc75e"/>
  </g>
</svg>
