<svg id="visibility_black_24dp_1" data-name="visibility_black_24dp 1" xmlns="http://www.w3.org/2000/svg" width="22.683" height="22.683" viewBox="0 0 22.683 22.683">
  <path id="Vector" d="M22.683,0H0V22.683H22.683Z" fill="none"/>
  <path id="Vector-2" data-name="Vector" d="M10.4,0a11.178,11.178,0,0,1,10.4,7.088A11.168,11.168,0,0,1,0,7.088,11.178,11.178,0,0,1,10.4,0Zm0,11.814A4.726,4.726,0,1,0,5.671,7.088,4.727,4.727,0,0,0,10.4,11.814Zm0-7.561A2.835,2.835,0,1,1,7.561,7.088,2.832,2.832,0,0,1,10.4,4.253Z" transform="translate(0.945 3.78)" fill="#121212"/>
</svg>
